<svg width="20" height="20" viewBox="0 0 20 20" fill="none" xmlns="http://www.w3.org/2000/svg">
<g clip-path="url(#clip0_74_2551)">
<path d="M19.9452 5.88005C19.8984 4.81738 19.7266 4.0868 19.4804 3.45373C19.2264 2.78177 18.8358 2.18014 18.3239 1.68001C17.8238 1.1721 17.2181 0.777434 16.554 0.527447C15.9172 0.281274 15.1904 0.109427 14.1278 0.0625732C13.0572 0.0117516 12.7173 0 10.0019 0C7.28657 0 6.94669 0.0117516 5.88004 0.0586052C4.81737 0.105459 4.08679 0.277459 3.45389 0.523479C2.78176 0.777434 2.18014 1.16813 1.68001 1.68001C1.1721 2.18014 0.777586 2.78573 0.527445 3.44992C0.281274 4.0868 0.109427 4.81341 0.0625731 5.87609C0.0117516 6.9467 0 7.28658 0 10.002C0 12.7173 0.0117516 13.0572 0.0586051 14.1239C0.105459 15.1866 0.277459 15.9171 0.52363 16.5502C0.777586 17.2221 1.1721 17.8238 1.68001 18.3239C2.18014 18.8318 2.78572 19.2264 3.44992 19.4764C4.08679 19.7227 4.8134 19.8944 5.87623 19.9413C6.94272 19.9883 7.28276 19.9999 9.99812 19.9999C12.7134 19.9999 13.0533 19.9883 14.12 19.9413C15.1827 19.8944 15.9132 19.7227 16.5462 19.4764C17.8903 18.9568 18.953 17.8941 19.4727 16.5502C19.7187 15.9133 19.8907 15.1866 19.9374 14.1239C19.9843 13.0572 19.9961 12.7173 19.9961 10.002C19.9961 7.28658 19.9921 6.9467 19.9452 5.88005ZM18.1442 14.0457C18.1012 15.0224 17.9371 15.5499 17.8003 15.9016C17.4643 16.7729 16.7728 17.4643 15.9016 17.8004C15.5499 17.9371 15.0187 18.1012 14.0457 18.1441C12.9908 18.1911 12.6744 18.2027 10.0059 18.2027C7.33739 18.2027 7.01704 18.1911 5.96597 18.1441C4.98922 18.1012 4.46177 17.9371 4.11014 17.8004C3.67656 17.6401 3.28189 17.3862 2.96154 17.0541C2.62944 16.7298 2.37549 16.3391 2.21524 15.9056C2.0785 15.5539 1.91443 15.0224 1.87154 14.0497C1.82454 12.9948 1.81294 12.6782 1.81294 10.0097C1.81294 7.34121 1.82454 7.02087 1.87154 5.96994C1.91443 4.99319 2.0785 4.46574 2.21524 4.11411C2.37549 3.68038 2.62944 3.28586 2.96551 2.96537C3.28967 2.63327 3.68037 2.37931 4.11411 2.21921C4.46574 2.08247 4.99716 1.9184 5.96993 1.87537C7.02483 1.82851 7.34135 1.81676 10.0097 1.81676C12.6822 1.81676 12.9986 1.82851 14.0497 1.87537C15.0264 1.9184 15.5539 2.08247 15.9054 2.21921C16.3391 2.37931 16.7338 2.63327 17.0541 2.96537C17.3862 3.28968 17.6401 3.68038 17.8003 4.11411C17.9371 4.46574 18.1012 4.99701 18.1442 5.96994C18.1911 7.02484 18.2029 7.34121 18.2029 10.0097C18.2029 12.6782 18.1911 12.9908 18.1442 14.0457Z" fill="#001C3D"/>
<path d="M10.002 4.86426C7.16558 4.86426 4.86426 7.16542 4.86426 10.002C4.86426 12.8386 7.16558 15.1397 10.002 15.1397C12.8386 15.1397 15.1397 12.8386 15.1397 10.002C15.1397 7.16542 12.8386 4.86426 10.002 4.86426ZM10.002 13.3347C8.16187 13.3347 6.66927 11.8422 6.66927 10.002C6.66927 8.16171 8.16187 6.66927 10.002 6.66927C11.8422 6.66927 13.3347 8.16171 13.3347 10.002C13.3347 11.8422 11.8422 13.3347 10.002 13.3347Z" fill="#001C3D"/>
</g>
<defs>
<clipPath id="clip0_74_2551">
<rect width="20" height="20" fill="white"/>
</clipPath>
</defs>
</svg>
