<svg width="123" height="101" viewBox="0 0 123 101" fill="none" xmlns="http://www.w3.org/2000/svg">
<g clip-path="url(#clip0_42_57)">
<path d="M76.5305 51.625C74.0827 51.6249 71.6783 50.9871 69.5609 49.7761C67.4435 48.5652 65.6882 46.8241 64.4727 44.7291C63.2572 42.6341 62.6247 40.2596 62.6393 37.8461C62.6538 35.4326 63.3149 33.0658 64.5556 30.9852C65.7963 28.9046 67.5725 27.1842 69.7044 25.9982C71.8363 24.8121 74.2481 24.2026 76.6958 24.2312C79.1435 24.2598 81.54 24.9256 83.6427 26.1612C85.7455 27.3968 87.4798 29.1583 88.67 31.2673" stroke="url(#paint0_linear_42_57)" stroke-width="3" stroke-miterlimit="10"/>
<path d="M76.5662 48.114H76.4388" stroke="url(#paint1_linear_42_57)" stroke-width="0.5" stroke-miterlimit="10"/>
<path d="M75.8224 48.0888C74.1229 47.9634 72.4816 47.4239 71.0457 46.5187C69.6098 45.6136 68.4242 44.3712 67.5954 42.9029C66.7665 41.4346 66.3203 39.7864 66.2968 38.1062C66.2732 36.4259 66.6731 34.7662 67.4605 33.2759C68.2479 31.7856 69.3982 30.5114 70.8082 29.5675C72.2182 28.6236 73.8437 28.0396 75.5391 27.8678C77.2344 27.6961 78.9465 27.9421 80.5217 28.5836C82.0968 29.2251 83.4859 30.2421 84.5641 31.5435" stroke="url(#paint2_linear_42_57)" stroke-width="0.5" stroke-miterlimit="10" stroke-dasharray="0.5 1.21"/>
<path d="M84.7271 31.7795L84.8044 31.8815" stroke="url(#paint3_linear_42_57)" stroke-width="0.5" stroke-miterlimit="10"/>
<path d="M83.4637 43.6335L83.5469 43.7005" stroke="url(#paint4_linear_42_57)" stroke-width="0.5" stroke-miterlimit="10"/>
<path d="M83.9936 44.1409C84.1464 44.2916 84.289 44.4523 84.4317 44.6432C85.4346 45.8137 86.1557 47.1929 86.541 48.6774C86.9263 50.1619 86.9658 51.7132 86.6564 53.2148C86.3471 54.7165 85.6969 56.1296 84.7548 57.3483C83.8126 58.5669 82.6029 59.5594 81.2162 60.2514C79.8296 60.9433 78.3021 61.3168 76.7483 61.3438C75.1944 61.3708 73.6545 61.0506 72.2441 60.4071C70.8336 59.7637 69.5892 58.8138 68.6041 57.6286C67.619 56.4435 66.9188 55.0538 66.556 53.5638" stroke="url(#paint5_linear_42_57)" stroke-width="0.5" stroke-miterlimit="10" stroke-dasharray="0.5 1.2"/>
<path d="M66.4898 53.2424C66.4898 53.2022 66.4898 53.162 66.4644 53.1218" stroke="url(#paint6_linear_42_57)" stroke-width="0.5" stroke-miterlimit="10"/>
<path d="M84.8494 32.7893C85.1926 32.7893 85.4709 32.5149 85.4709 32.1765C85.4709 31.8381 85.1926 31.5637 84.8494 31.5637C84.5062 31.5637 84.2279 31.8381 84.2279 32.1765C84.2279 32.5149 84.5062 32.7893 84.8494 32.7893Z" fill="url(#paint7_linear_42_57)"/>
<path d="M66.2351 53.4886C66.5474 53.4886 66.8006 53.239 66.8006 52.9311C66.8006 52.6232 66.5474 52.3735 66.2351 52.3735C65.9228 52.3735 65.6697 52.6232 65.6697 52.9311C65.6697 53.239 65.9228 53.4886 66.2351 53.4886Z" fill="url(#paint8_linear_42_57)"/>
<path d="M29.5567 53.7748C29.9506 53.7748 30.2699 53.46 30.2699 53.0716C30.2699 52.6832 29.9506 52.3684 29.5567 52.3684C29.1628 52.3684 28.8435 52.6832 28.8435 53.0716C28.8435 53.46 29.1628 53.7748 29.5567 53.7748Z" fill="url(#paint9_linear_42_57)"/>
<path d="M63.4995 20.4278C63.8708 20.4278 64.1719 20.131 64.1719 19.7648C64.1719 19.3987 63.8708 19.1018 63.4995 19.1018C63.1281 19.1018 62.827 19.3987 62.827 19.7648C62.827 20.131 63.1281 20.4278 63.4995 20.4278Z" fill="url(#paint10_linear_42_57)"/>
<path d="M63.7921 19.77H63.6777" stroke="url(#paint11_linear_42_57)" stroke-width="0.5" stroke-miterlimit="10"/>
<path d="M63.0563 19.8052C58.5916 20.106 54.416 22.0911 51.3971 25.3483C48.3781 28.6054 46.7477 32.8841 46.8448 37.2955C46.9418 41.7069 48.7588 45.9119 51.9182 49.0369C55.0776 52.1619 59.3365 53.9666 63.8103 54.0763" stroke="url(#paint12_linear_42_57)" stroke-width="0.5" stroke-miterlimit="10" stroke-dasharray="0.5 1.19"/>
<path d="M64.1158 54.0813H64.2432" stroke="url(#paint13_linear_42_57)" stroke-width="0.5" stroke-miterlimit="10"/>
<path d="M33.6218 43.5332C39.1842 43.5332 44.5187 41.3545 48.4519 37.4764C52.3851 33.5983 54.5947 28.3384 54.5947 22.854C54.5947 17.3695 52.3851 12.1097 48.4519 8.2316C44.5187 4.3535 39.1842 2.1748 33.6218 2.1748V43.5332Z" stroke="url(#paint14_linear_42_57)" stroke-width="3" stroke-miterlimit="10"/>
<path d="M50.6161 19.0868L50.5856 18.9612" stroke="url(#paint15_linear_42_57)" stroke-width="0.5" stroke-miterlimit="10"/>
<path d="M50.4328 18.3936C49.4368 14.749 47.25 11.5297 44.211 9.23418C41.1719 6.9387 37.4502 5.69506 33.6219 5.6958H29.9846" stroke="url(#paint16_linear_42_57)" stroke-width="0.5" stroke-miterlimit="10" stroke-dasharray="0.5 1.19"/>
<path d="M29.684 5.6958H29.5566V5.82137" stroke="url(#paint17_linear_42_57)" stroke-width="0.5" stroke-miterlimit="10"/>
<path d="M29.5566 6.41919V51.831" stroke="url(#paint18_linear_42_57)" stroke-width="0.5" stroke-miterlimit="10" stroke-dasharray="0.5 1.19"/>
<path d="M29.5566 52.1323V52.2579" stroke="url(#paint19_linear_42_57)" stroke-width="0.5" stroke-miterlimit="10"/>
<path d="M64.1871 16.0981C58.6248 16.0981 53.2902 18.2768 49.3571 22.1549C45.4239 26.033 43.2142 31.2929 43.2142 36.7773C43.2142 42.2618 45.4239 47.5216 49.3571 51.3997C53.2902 55.2778 58.6248 57.4565 64.1871 57.4565" stroke="url(#paint20_linear_42_57)" stroke-width="3" stroke-miterlimit="10"/>
<path d="M76.5305 37.9278C79.2804 37.9228 81.9699 38.7223 84.2587 40.2252C86.5476 41.728 88.3327 43.8666 89.3883 46.3702C90.4439 48.8739 90.7225 51.63 90.1887 54.2898C89.655 56.9496 88.3329 59.3935 86.3899 61.3121C84.4468 63.2307 81.9702 64.5379 79.2734 65.068C76.5766 65.5982 73.7809 65.3276 71.2402 64.2905C68.6994 63.2533 66.5279 61.4963 65.0003 59.2418C63.4728 56.9872 62.6579 54.3365 62.6589 51.6251" stroke="url(#paint21_linear_42_57)" stroke-width="3" stroke-miterlimit="10"/>
<path d="M6.96889 97.4084H5.05856C4.96812 97.4122 4.878 97.3957 4.79502 97.36C4.71205 97.3243 4.63842 97.2704 4.5797 97.2025C4.46085 97.062 4.39912 96.883 4.4065 96.7002V92.7171H2.87823C2.67095 92.7151 2.46575 92.7579 2.27711 92.8427C2.08771 92.9207 1.91489 93.0331 1.76769 93.1742C1.62433 93.3181 1.51173 93.4889 1.43656 93.6765C1.35918 93.863 1.31939 94.0626 1.3194 94.2641V96.0874L1.82882 96.1527C1.97516 96.1777 2.12351 96.1895 2.27202 96.1879C2.46327 96.1865 2.65408 96.1697 2.84257 96.1377C3.06162 96.1075 3.35199 96.0573 3.68821 95.987C3.68821 96.2231 3.72896 96.439 3.74934 96.6299C3.76972 96.8208 3.785 97.0317 3.80538 97.2628C3.46406 97.313 3.14313 97.3532 2.84766 97.3733C2.56651 97.3979 2.28424 97.408 2.00202 97.4034C1.74481 97.3983 1.48805 97.3798 1.2328 97.3482C0.988809 97.3146 0.747205 97.266 0.509415 97.2025C0.44187 97.1914 0.377284 97.167 0.319515 97.1308C0.261747 97.0945 0.211983 97.0472 0.173197 96.9916C0.0858279 96.8773 0.0392565 96.7378 0.0407469 96.5947V94.2641C0.0375694 93.8899 0.112116 93.5189 0.259798 93.1742C0.4031 92.8412 0.608761 92.5379 0.866011 92.2801C1.125 92.0245 1.43102 91.82 1.76769 91.6774C2.11879 91.53 2.49666 91.4548 2.87823 91.4563H4.80894C4.91943 91.4551 5.02889 91.4774 5.12988 91.5216C5.23028 91.5652 5.32178 91.6265 5.39987 91.7025C5.47944 91.7765 5.54348 91.8653 5.58836 91.9637C5.63856 92.0602 5.6664 92.1666 5.66986 92.2751L5.70043 96.1427H6.96889V97.4084ZM1.56392 89.618C1.56111 89.5249 1.57775 89.4323 1.6128 89.3459C1.64786 89.2595 1.70058 89.1811 1.76769 89.1157C1.83311 89.0482 1.91243 88.9954 2.0003 88.9608C2.08818 88.9261 2.18257 88.9104 2.27711 88.9148C2.37296 88.913 2.4682 88.9301 2.55729 88.965C2.6431 88.9997 2.72103 89.0509 2.78653 89.1157C2.84892 89.1829 2.90046 89.2591 2.93936 89.3417C3.0074 89.5198 3.0074 89.7162 2.93936 89.8942C2.90105 89.9757 2.84942 90.0503 2.78653 90.1152C2.7184 90.1767 2.64108 90.2276 2.55729 90.2659C2.46753 90.2985 2.37274 90.3154 2.27711 90.3162C2.18417 90.3168 2.09203 90.2992 2.00609 90.2643C1.92015 90.2294 1.84215 90.1779 1.77667 90.1129C1.71118 90.0478 1.65953 89.9705 1.62475 89.8856C1.58997 89.8006 1.57275 89.7096 1.57411 89.618M3.56085 89.618C3.55804 89.5249 3.57468 89.4323 3.60974 89.3459C3.64479 89.2595 3.69752 89.1811 3.76462 89.1157C3.83024 89.0485 3.9096 88.9959 3.99742 88.9612C4.08525 88.9266 4.17954 88.9107 4.27405 88.9148C4.36989 88.913 4.46513 88.9301 4.55423 88.965C4.64004 88.9997 4.71797 89.0509 4.78347 89.1157C4.848 89.1793 4.89984 89.2542 4.93629 89.3367C4.97132 89.4264 4.98861 89.5219 4.98724 89.618C4.98899 89.7125 4.97167 89.8064 4.93629 89.8942C4.90101 89.9759 4.84898 90.0494 4.78347 90.1102C4.71797 90.175 4.64004 90.2262 4.55423 90.2609C4.46549 90.2975 4.37024 90.3163 4.27405 90.3162C4.17962 90.3195 4.08552 90.3034 3.99779 90.2688C3.91005 90.2342 3.83063 90.1819 3.76462 90.1152C3.69649 90.0505 3.6431 89.9723 3.60796 89.8857C3.57283 89.7991 3.55678 89.7061 3.56085 89.613" fill="white"/>
<path d="M10.2954 96.1276V91.6824H11.5843V96.1276H12.9393V97.4135H6.93835V96.1326L10.2954 96.1276ZM9.16962 99.5532C9.16777 99.4599 9.18536 99.3671 9.22128 99.2807C9.2572 99.1943 9.31071 99.1161 9.37849 99.0509C9.44405 98.9834 9.52327 98.9301 9.61103 98.8946C9.69878 98.8592 9.79311 98.8423 9.88791 98.845C9.9857 98.8454 10.0825 98.8641 10.1732 98.9002C10.2568 98.9362 10.3328 98.9873 10.3973 99.0509C10.464 99.1127 10.5162 99.1882 10.5502 99.2719C10.5873 99.3612 10.6063 99.4568 10.6062 99.5532C10.6063 99.6464 10.5873 99.7387 10.5502 99.8245C10.4766 99.9909 10.342 100.124 10.1732 100.196C10.0827 100.233 9.98575 100.252 9.88791 100.251C9.79367 100.253 9.70001 100.236 9.6125 100.202C9.52498 100.167 9.4454 100.116 9.37849 100.05C9.31046 99.9855 9.25679 99.9073 9.22085 99.8209C9.18491 99.7344 9.16747 99.6416 9.16962 99.5482M11.1666 99.5482C11.1645 99.4557 11.181 99.3637 11.2151 99.2775C11.2492 99.1913 11.3002 99.1126 11.3652 99.0459C11.4316 98.9797 11.5111 98.9278 11.5987 98.8932C11.6864 98.8586 11.7803 98.8422 11.8747 98.845C11.969 98.8425 12.0628 98.8591 12.1504 98.8936C12.238 98.9282 12.3175 98.98 12.3841 99.0459C12.5167 99.1802 12.59 99.3608 12.5878 99.5482C12.5907 99.6412 12.574 99.7338 12.539 99.8202C12.5039 99.9067 12.4512 99.985 12.3841 100.05C12.3164 100.115 12.2366 100.165 12.1492 100.198C12.0617 100.232 11.9685 100.248 11.8747 100.246C11.7807 100.25 11.687 100.234 11.5995 100.2C11.512 100.167 11.4325 100.115 11.366 100.05C11.2995 99.9842 11.2475 99.9058 11.2132 99.8195C11.1789 99.7332 11.163 99.6408 11.1666 99.5482Z" fill="white"/>
<path d="M12.9241 97.4036V96.1228H14.1518V94.184C14.1545 93.846 14.2291 93.5123 14.3708 93.2045C14.516 92.8723 14.7195 92.5679 14.9719 92.3054C15.2261 92.0371 15.5283 91.8174 15.8634 91.6575C16.2082 91.4962 16.5876 91.4203 16.9689 91.4365H18.0998C18.4768 91.4365 18.8537 91.4365 19.2256 91.4365C19.3115 91.4351 19.3967 91.4523 19.4752 91.4867C19.5552 91.5141 19.627 91.5607 19.6841 91.6223C19.7412 91.6792 19.7878 91.7455 19.8216 91.8182C19.8541 91.8946 19.8714 91.9765 19.8726 92.0593V96.0776H20.9984V97.3635L12.9241 97.4036ZM15.4712 96.1228H18.5939V92.7324H16.9383C16.7476 92.732 16.5593 92.775 16.3881 92.8579C16.2125 92.9414 16.0523 93.0535 15.9144 93.1894C15.773 93.3225 15.6589 93.4811 15.5782 93.6566C15.4941 93.8254 15.4505 94.011 15.4508 94.199L15.4712 96.1228Z" fill="white"/>
<path d="M20.9424 97.4035V96.1226H22.6082C22.4641 95.8448 22.353 95.5516 22.2771 95.2487C22.2081 94.981 22.1721 94.7061 22.1701 94.4299C22.1696 94.0525 22.2316 93.6776 22.3535 93.3199C22.4601 92.9727 22.633 92.6487 22.8629 92.3655C23.0997 92.0809 23.3971 91.8512 23.734 91.6925C24.1149 91.5048 24.536 91.41 24.9617 91.4162H26.923C27.0388 91.4167 27.1532 91.4406 27.2592 91.4865C27.3634 91.5306 27.4571 91.5956 27.5343 91.6774C27.6116 91.7599 27.6736 91.8551 27.7177 91.9587C27.759 92.0644 27.7797 92.1769 27.7788 92.2902V96.7455C27.7806 96.8291 27.7653 96.9122 27.7338 96.9899C27.7023 97.0676 27.6552 97.1382 27.5954 97.1975C27.536 97.2579 27.4647 97.3055 27.3858 97.3375C27.3069 97.3695 27.2222 97.3851 27.137 97.3834L20.9424 97.4035ZM23.2552 89.608C23.2526 89.515 23.2694 89.4225 23.3045 89.3361C23.3395 89.2497 23.3921 89.1713 23.4589 89.1057C23.5243 89.0382 23.6037 88.9854 23.6915 88.9508C23.7794 88.9161 23.8738 88.9004 23.9683 88.9048C24.0659 88.903 24.1628 88.9201 24.2536 88.955C24.3386 88.9885 24.4151 89.0399 24.4778 89.1057C24.5434 89.1703 24.5954 89.2471 24.6306 89.3317C24.6676 89.4192 24.6866 89.5131 24.6866 89.608C24.6866 89.7028 24.6676 89.7967 24.6306 89.8842C24.5941 89.9654 24.5442 90.0401 24.4829 90.1052C24.4147 90.1667 24.3374 90.2176 24.2536 90.2559C24.1644 90.2904 24.0693 90.3075 23.9734 90.3061C23.8805 90.3068 23.7884 90.2892 23.7024 90.2543C23.6165 90.2194 23.5385 90.1679 23.473 90.1029C23.4075 90.0378 23.3559 89.9605 23.3211 89.8756C23.2863 89.7906 23.2691 89.6996 23.2704 89.608M23.6067 95.1633C23.6536 95.2969 23.7187 95.4236 23.8002 95.54C23.8812 95.6558 23.981 95.7576 24.0957 95.8414C24.2127 95.9289 24.3435 95.9968 24.4829 96.0423C24.647 96.0963 24.8193 96.1218 24.9923 96.1176H26.5206V92.7121H24.9617C24.7299 92.7054 24.5002 92.7573 24.2944 92.8628C24.1111 92.9581 23.9511 93.0918 23.8257 93.2546C23.7017 93.4188 23.6101 93.6045 23.5557 93.8021C23.4624 94.1288 23.4433 94.4718 23.4997 94.8066C23.5178 94.9326 23.552 95.0558 23.6016 95.1733M25.2521 89.618C25.25 89.5255 25.2669 89.4336 25.3017 89.3477C25.3365 89.2618 25.3885 89.1837 25.4546 89.118C25.5207 89.0524 25.5995 89.0006 25.6864 88.9656C25.7733 88.9307 25.8664 88.9134 25.9602 88.9148C26.056 88.9131 26.1513 88.9302 26.2404 88.965C26.3262 88.9997 26.4041 89.051 26.4696 89.1157C26.5337 89.1816 26.5854 89.2581 26.6224 89.3417C26.6905 89.5198 26.6905 89.7162 26.6224 89.8943C26.5852 89.9748 26.5334 90.048 26.4696 90.1102C26.4041 90.175 26.3262 90.2262 26.2404 90.2609C26.1516 90.2975 26.0564 90.3163 25.9602 90.3162C25.8658 90.3193 25.7718 90.303 25.6841 90.2684C25.5964 90.2338 25.517 90.1817 25.4508 90.1153C25.3826 90.0506 25.3292 89.9723 25.2941 89.8857C25.259 89.7991 25.2429 89.7062 25.247 89.613" fill="white"/>
<path d="M31.0748 93.4506C31.0748 93.2698 31.0748 93.094 31.0493 92.9232C31.0239 92.7524 31.0493 92.5867 31.0493 92.4209H32.3433V92.6771C32.3433 92.8026 32.3433 92.9583 32.3433 93.1341C32.3433 93.3099 32.3433 93.5008 32.3433 93.7017C32.3433 93.9026 32.3433 94.0985 32.3433 94.2794C32.3433 94.4602 32.3433 94.6209 32.3433 94.7565C32.3433 94.8922 32.3433 94.9876 32.3433 95.0328C32.3433 95.078 32.3433 95.1986 32.3433 95.289C32.3433 95.3794 32.3433 95.4748 32.3433 95.5702C32.3433 95.6657 32.3433 95.7561 32.3433 95.8515C32.3433 95.947 32.3433 96.0273 32.3433 96.1027H33.4487V97.3835H32.2261C32.1244 97.8593 31.9742 98.3238 31.7778 98.7698C31.5936 99.1876 31.3386 99.5715 31.0239 99.905C30.7044 100.235 30.3218 100.5 29.898 100.684C29.4017 100.884 28.8706 100.989 28.3341 100.99V99.7041C28.7077 99.6941 29.076 99.614 29.4192 99.468C29.7045 99.3468 29.9625 99.171 30.1782 98.9506C30.3926 98.7147 30.5648 98.4447 30.6876 98.152C30.8121 97.8367 30.9059 97.5104 30.9678 97.1776C31.0313 96.8174 31.0671 96.4531 31.0748 96.0876C31.0748 95.7159 31.0748 95.3492 31.0748 94.9826C31.0748 94.7214 31.0748 94.4803 31.0748 94.204C31.0748 93.9278 31.0748 93.7017 31.0748 93.4506Z" fill="white"/>
<path d="M33.4282 96.1126H34.8546V88.8345H36.1689V96.6903C36.1689 96.6903 36.1689 96.7304 36.1689 96.7505C36.1717 96.8359 36.1558 96.9209 36.1224 96.9998C36.089 97.0786 36.0389 97.1495 35.9753 97.2076C35.9159 97.2679 35.8446 97.3156 35.7657 97.3475C35.6868 97.3795 35.6021 97.3951 35.5169 97.3935H33.4282V96.1126Z" fill="white"/>
<path d="M39.3427 88.8345H38.059V97.3784H39.3427V88.8345Z" fill="white"/>
<path d="M51.1308 97.3885H49.2204C49.13 97.3923 49.0399 97.3757 48.9569 97.34C48.8739 97.3043 48.8003 97.2505 48.7416 97.1825C48.6248 97.0409 48.5633 96.8627 48.5684 96.6803V92.7021H47.0401C46.8328 92.7001 46.6276 92.743 46.439 92.8277C46.2489 92.9044 46.0758 93.017 45.9296 93.1592C45.7829 93.3004 45.6698 93.472 45.5984 93.6615C45.517 93.847 45.4754 94.0471 45.4762 94.2492V96.0725C45.6647 96.0725 45.8277 96.1177 45.9856 96.1378C46.1324 96.1585 46.2805 96.1686 46.4288 96.1679C46.6198 96.1659 46.8105 96.1508 46.9993 96.1227C47.2184 96.0926 47.5088 96.0424 47.845 95.972C47.845 96.2081 47.8806 96.4241 47.901 96.615C47.9214 96.8058 47.9418 97.0168 47.9622 97.2428C47.6208 97.2981 47.2999 97.3332 47.0044 97.3583C46.7233 97.3829 46.441 97.393 46.1588 97.3885C45.9016 97.3835 45.6448 97.365 45.3896 97.3332C45.1455 97.3002 44.9039 97.2515 44.6662 97.1876C44.5938 97.1737 44.5254 97.1445 44.4656 97.102C44.4058 97.0595 44.356 97.0047 44.3198 96.9415C44.2295 96.8268 44.1826 96.6847 44.1873 96.5396V94.2291C44.1846 93.8624 44.2553 93.4987 44.3951 93.1588C44.535 92.819 44.7414 92.5096 45.0025 92.2484C45.2636 91.9872 45.5744 91.7793 45.917 91.6365C46.2596 91.4938 46.6274 91.4189 46.9993 91.4163H48.9708C49.0812 91.4161 49.1904 91.4383 49.2917 91.4816C49.4943 91.5661 49.6577 91.7219 49.7502 91.9186C49.7975 92.018 49.8252 92.1254 49.8317 92.235L49.8623 96.1026H51.1308V97.3885ZM45.7258 89.598C45.723 89.505 45.7396 89.4124 45.7747 89.326C45.8097 89.2395 45.8625 89.1612 45.9296 89.0957C45.995 89.0283 46.0743 88.9755 46.1622 88.9408C46.2501 88.9061 46.3444 88.8905 46.439 88.8948C46.5365 88.8931 46.6334 88.9101 46.7243 88.945C46.8092 88.9785 46.8857 89.03 46.9484 89.0957C47.0129 89.1593 47.0648 89.2343 47.1012 89.3167C47.1384 89.406 47.1574 89.5015 47.1573 89.598C47.158 89.6913 47.1389 89.7837 47.1012 89.8692C47.0277 90.0356 46.893 90.1685 46.7243 90.2409C46.6354 90.277 46.5402 90.2958 46.4441 90.2962C46.3511 90.2969 46.259 90.2792 46.173 90.2443C46.0871 90.2094 46.0091 90.1579 45.9436 90.0929C45.8781 90.0279 45.8265 89.9506 45.7917 89.8656C45.7569 89.7806 45.7397 89.6896 45.7411 89.598M47.7278 89.598C47.7252 89.5054 47.7415 89.4133 47.7756 89.327C47.8097 89.2408 47.861 89.1621 47.9265 89.0957C47.9926 89.0289 48.0719 88.9761 48.1596 88.9407C48.2472 88.9053 48.3412 88.888 48.4359 88.8898C48.5321 88.8896 48.6274 88.9084 48.7161 88.945C48.8019 88.9797 48.8798 89.031 48.9453 89.0957C49.0088 89.1591 49.059 89.2342 49.0931 89.3167C49.1326 89.4052 49.1518 89.5013 49.1491 89.598C49.1509 89.6909 49.1335 89.7831 49.0982 89.8692C49.0611 89.9514 49.0093 90.0262 48.9453 90.0902C48.8798 90.155 48.8019 90.2062 48.7161 90.2409C48.6274 90.2775 48.5321 90.2963 48.4359 90.2962C48.3416 90.299 48.2476 90.2826 48.16 90.248C48.0724 90.2134 47.9929 90.1614 47.9265 90.0953C47.8589 90.0302 47.8058 89.9519 47.7707 89.8654C47.7356 89.7789 47.7193 89.6861 47.7227 89.593" fill="white"/>
<path d="M51.0645 97.3885V96.1027H54.121C53.9777 95.8245 53.8666 95.5314 53.7899 95.2287C53.7209 94.961 53.6849 94.6861 53.6829 94.41C53.6824 94.0326 53.7443 93.6577 53.8663 93.2999C53.9729 92.9527 54.1458 92.6288 54.3757 92.3456C54.614 92.0612 54.911 91.8301 55.2468 91.6675C55.6229 91.4946 56.0341 91.4087 56.449 91.4163H58.4103C58.5263 91.4145 58.6413 91.4385 58.7465 91.4867C58.8507 91.5307 58.9444 91.5957 59.0216 91.6775C59.0978 91.759 59.1598 91.8524 59.205 91.9538C59.248 92.061 59.2704 92.1751 59.2712 92.2903V96.7406C59.2731 96.825 59.2579 96.9089 59.2264 96.9874C59.1949 97.0659 59.1478 97.1374 59.0879 97.1977C59.0285 97.258 58.9571 97.3057 58.8782 97.3376C58.7993 97.3696 58.7146 97.3852 58.6294 97.3835L51.0645 97.3885ZM55.1398 95.1483C55.1868 95.282 55.2519 95.4087 55.3334 95.5251C55.4144 95.6409 55.5142 95.7427 55.6289 95.8264C55.7458 95.9139 55.8767 95.9818 56.016 96.0273C56.1801 96.0814 56.3525 96.1069 56.5255 96.1027H58.0537V92.6972H56.5255C56.2921 92.6912 56.0609 92.743 55.853 92.8479C55.6697 92.9432 55.5097 93.0769 55.3844 93.2397C55.2603 93.4038 55.1687 93.5896 55.1144 93.7871C55.0211 94.1139 55.0019 94.4569 55.0583 94.7917C55.0773 94.9175 55.1115 95.0406 55.1602 95.1584M56.2249 89.6031C56.2221 89.5101 56.2387 89.4175 56.2738 89.331C56.3088 89.2446 56.3616 89.1663 56.4287 89.1008C56.5654 88.9707 56.748 88.8979 56.9381 88.8979C57.1281 88.8979 57.3108 88.9707 57.4475 89.1008C57.5146 89.1663 57.5673 89.2446 57.6024 89.331C57.6375 89.4175 57.6541 89.5101 57.6513 89.6031C57.6554 89.6963 57.6393 89.7892 57.6042 89.8758C57.569 89.9624 57.5156 90.0407 57.4475 90.1054C57.3811 90.1715 57.3016 90.2235 57.214 90.2581C57.1264 90.2927 57.0324 90.3091 56.9381 90.3063C56.8437 90.3097 56.7496 90.2936 56.6618 90.259C56.5741 90.2244 56.4947 90.172 56.4287 90.1054C56.3605 90.0407 56.3071 89.9624 56.272 89.8758C56.2369 89.7892 56.2208 89.6963 56.2249 89.6031Z" fill="white"/>
<path d="M63.4995 97.3783H61.3956C61.2222 97.3791 61.0556 97.3123 60.932 97.1925C60.8704 97.1331 60.8219 97.0619 60.7894 96.9833C60.757 96.9046 60.7414 96.8203 60.7435 96.7354C60.7408 96.7137 60.7408 96.6918 60.7435 96.6701V88.8193H62.0374V96.0975H63.4944L63.4995 97.3783Z" fill="white"/>
<path d="M63.4332 97.3833V96.0975H64.9615C64.8197 95.8181 64.707 95.5253 64.6253 95.2235C64.5563 94.9558 64.5204 94.6809 64.5183 94.4048C64.5183 94.0278 64.5784 93.6532 64.6966 93.2947C64.8063 92.9472 64.9789 92.6222 65.206 92.3353C65.4478 92.0537 65.7462 91.8246 66.0822 91.6623C66.4576 91.4872 66.8693 91.4011 67.2845 91.4111H69.2356C69.3533 91.4087 69.47 91.4327 69.5769 91.4815C69.681 91.5255 69.7747 91.5905 69.8519 91.6723C70.012 91.8377 70.1029 92.0565 70.1067 92.2851V96.0925H71.2274V97.3783L63.4332 97.3833ZM65.9396 95.1431C65.9869 95.2741 66.0502 95.3989 66.1281 95.5148C66.2099 95.6298 66.3076 95.7329 66.4184 95.8212C66.6752 96.0066 66.9866 96.1037 67.3048 96.0975H68.8331V92.692H67.3048C67.0714 92.6853 66.84 92.7371 66.6324 92.8426C66.4491 92.938 66.2891 93.0717 66.1637 93.2344C66.0388 93.398 65.9471 93.584 65.8937 93.7819C65.8334 93.9825 65.8025 94.1905 65.802 94.3997C65.8021 94.5259 65.8123 94.6519 65.8326 94.7765C65.8486 94.9035 65.8847 95.0272 65.9396 95.1431ZM65.8479 89.5878C65.8451 89.4948 65.8617 89.4022 65.8968 89.3158C65.9318 89.2294 65.9846 89.151 66.0517 89.0855C66.117 89.0177 66.1962 88.9643 66.284 88.9288C66.3718 88.8933 66.4662 88.8765 66.5611 88.8796C66.6573 88.8795 66.7525 88.8982 66.8413 88.9349C66.9271 88.9696 67.005 89.0208 67.0705 89.0855C67.1361 89.1482 67.1881 89.2234 67.2233 89.3065C67.2605 89.3958 67.2795 89.4914 67.2794 89.5878C67.2801 89.6811 67.261 89.7735 67.2233 89.8591C67.1894 89.9428 67.1372 90.0183 67.0705 90.0801C67.006 90.1459 66.9278 90.1973 66.8413 90.2308C66.7525 90.2674 66.6573 90.2861 66.5611 90.286C66.4667 90.2888 66.3728 90.2724 66.2852 90.2378C66.1975 90.2032 66.118 90.1513 66.0517 90.0851C65.9835 90.0204 65.9301 89.9421 65.895 89.8555C65.8599 89.769 65.8438 89.676 65.8479 89.5828M67.8397 89.5828C67.8381 89.4899 67.8553 89.3977 67.8903 89.3114C67.9253 89.2252 67.9774 89.1467 68.0435 89.0805C68.1103 89.0143 68.1896 88.9618 68.2771 88.9259C68.3645 88.89 68.4582 88.8716 68.5529 88.8716C68.6476 88.8716 68.7414 88.89 68.8288 88.9259C68.9162 88.9618 68.9956 89.0143 69.0623 89.0805C69.1943 89.2154 69.2681 89.3954 69.2681 89.5828C69.2681 89.7702 69.1943 89.9503 69.0623 90.0851C68.9952 90.1499 68.9154 90.2006 68.8279 90.2343C68.7404 90.2679 68.6468 90.2838 68.5529 90.281C68.4589 90.2847 68.3651 90.2692 68.2775 90.2355C68.1898 90.2018 68.1101 90.1506 68.0435 90.0851C67.9771 90.0191 67.9249 89.9406 67.8899 89.8544C67.8549 89.7681 67.8378 89.6757 67.8397 89.5828Z" fill="white"/>
<path d="M71.1154 97.3785V96.0926H72.6436V91.6474H73.9376V96.0926H75.2926V97.3735L71.1154 97.3785ZM71.2886 89.5981C71.2857 89.505 71.3024 89.4124 71.3374 89.326C71.3725 89.2396 71.4252 89.1612 71.4923 89.0958C71.5581 89.0289 71.6375 88.9764 71.7253 88.9418C71.8131 88.9071 71.9073 88.8912 72.0017 88.8949C72.0979 88.8947 72.1932 88.9135 72.2819 88.9501C72.3677 88.9848 72.4457 89.036 72.5112 89.1008C72.5767 89.1616 72.6287 89.2352 72.664 89.3168C72.732 89.4948 72.732 89.6912 72.664 89.8693C72.6287 89.9509 72.5767 90.0245 72.5112 90.0853C72.4457 90.15 72.3677 90.2013 72.2819 90.236C72.1932 90.2726 72.0979 90.2913 72.0017 90.2912C71.9073 90.2949 71.8131 90.2789 71.7253 90.2443C71.6375 90.2097 71.5581 90.1572 71.4923 90.0903C71.4252 90.0248 71.3725 89.9465 71.3374 89.8601C71.3024 89.7736 71.2857 89.681 71.2886 89.588M72.4806 87.6944C72.4805 87.5995 72.4995 87.5056 72.5366 87.4181C72.5718 87.3335 72.6238 87.2567 72.6895 87.1921C72.7521 87.1263 72.8286 87.0749 72.9136 87.0414C73.0007 87.0053 73.0942 86.9866 73.1887 86.9862C73.2832 86.9848 73.377 87.0022 73.4645 87.0374C73.5519 87.0725 73.6313 87.1247 73.6979 87.1909C73.7645 87.257 73.8169 87.3356 73.8519 87.4221C73.887 87.5087 73.904 87.6012 73.9019 87.6944C73.9032 87.7872 73.8859 87.8794 73.851 87.9656C73.817 88.0494 73.7648 88.1249 73.6981 88.1866C73.6336 88.2503 73.5576 88.3014 73.474 88.3373C73.3833 88.3734 73.2865 88.3922 73.1887 88.3926C73.0939 88.3953 72.9996 88.3784 72.9118 88.3429C72.8241 88.3074 72.7448 88.2542 72.6793 88.1866C72.6102 88.1224 72.5559 88.0443 72.5199 87.9577C72.4838 87.8711 72.467 87.7779 72.4704 87.6843M73.6625 89.578C73.6625 89.3928 73.7371 89.2152 73.8699 89.0843C74.0027 88.9533 74.1828 88.8798 74.3706 88.8798C74.5584 88.8798 74.7385 88.9533 74.8713 89.0843C75.0041 89.2152 75.0787 89.3928 75.0787 89.578C75.0818 89.6706 75.0659 89.7629 75.0317 89.8493C74.9975 89.9356 74.9459 90.0142 74.88 90.0803C74.7432 90.2104 74.5606 90.2831 74.3706 90.2831C74.1805 90.2831 73.9979 90.2104 73.8611 90.0803C73.794 90.0148 73.7413 89.9364 73.7063 89.85C73.6712 89.7636 73.6546 89.671 73.6574 89.578" fill="white"/>
<path d="M75.2111 96.0926H76.6374V88.8145H77.9416V96.6702C77.9416 96.6702 77.9416 96.7104 77.9416 96.7355C77.9416 96.9052 77.8736 97.0679 77.7524 97.1884C77.6312 97.3088 77.4666 97.3771 77.2946 97.3785H75.2213L75.2111 96.0926Z" fill="white"/>
<path d="M81.1395 88.8042L79.8557 88.8062L79.8693 97.3501L81.1531 97.3481L81.1395 88.8042Z" fill="white"/>
<path d="M107.828 88.8029L106.544 88.8049L106.558 97.3488L107.842 97.3469L107.828 88.8029Z" fill="white"/>
<path d="M91.3496 96.0826V91.6374H92.6486V96.0776H96.0159V91.6323H97.2997V96.0776H99.266V91.6323H100.56V96.7155C100.563 96.8004 100.547 96.885 100.515 96.9637C100.482 97.0425 100.434 97.1136 100.371 97.1726C100.313 97.2328 100.243 97.2804 100.165 97.3123C100.087 97.3443 100.003 97.36 99.9181 97.3584H92.5824V98.363C92.5824 99.9452 91.1509 100.945 89.1744 100.945C87.1978 100.945 85.4403 100.312 85.4403 98.363V93.7068H86.7088V97.5141C86.7088 99.3374 88.237 99.3927 89.1387 99.3927C90.4428 99.3927 91.3394 98.9155 91.3394 97.1826L91.3496 96.0826Z" fill="white"/>
<path d="M105.084 92.3906C105.084 92.5714 105.084 92.7422 105.084 92.8929C105.084 93.0436 105.084 93.2345 105.084 93.4454C105.084 93.6564 105.084 93.9477 105.114 94.2039C105.145 94.4601 105.114 94.7062 105.114 95.0075C105.114 95.3943 105.114 95.7961 105.073 96.208C105.055 96.6222 105.011 97.0348 104.941 97.4436C104.844 97.9031 104.697 98.351 104.503 98.7797C104.319 99.1915 104.064 99.5688 103.749 99.8948C103.426 100.219 103.044 100.48 102.623 100.663C102.129 100.871 101.597 100.977 101.059 100.975V99.6889C101.433 99.6789 101.801 99.5988 102.144 99.4528C102.433 99.3216 102.693 99.1355 102.908 98.9053C103.123 98.6695 103.295 98.3994 103.418 98.1067C103.542 97.7907 103.637 97.4646 103.703 97.1322C103.77 96.7788 103.812 96.4214 103.83 96.0623C103.83 95.6907 103.861 95.324 103.861 94.9573C103.861 94.6961 103.861 94.455 103.861 94.1788C103.861 93.9025 103.861 93.6765 103.861 93.4253C103.861 93.1742 103.861 93.0687 103.861 92.8979C103.861 92.7272 103.861 92.5664 103.861 92.3956L105.084 92.3906Z" fill="white"/>
<path d="M109.358 97.3483V96.0675H113.565C113.551 95.551 113.481 95.0374 113.357 94.5355C113.266 94.167 113.092 93.8236 112.847 93.531C112.543 93.2229 112.159 93.0038 111.737 92.8981C111.121 92.7426 110.486 92.6766 109.852 92.7022C109.852 92.4611 109.852 92.2451 109.852 92.0542C109.852 91.8634 109.852 91.6574 109.852 91.4264C110.301 91.4185 110.75 91.4403 111.197 91.4917C111.568 91.5352 111.934 91.6108 112.292 91.7177C112.6 91.8132 112.894 91.9466 113.168 92.1145C113.42 92.2734 113.648 92.4662 113.846 92.6871C114.19 93.0915 114.437 93.567 114.569 94.0784C114.737 94.7362 114.835 95.4097 114.859 96.0876H115.776V97.3734L109.358 97.3483Z" fill="white"/>
<path d="M115.664 96.0674H116.912V94.1336C116.912 93.7871 116.986 93.4446 117.131 93.129C117.278 92.7974 117.481 92.4932 117.733 92.2299C117.986 91.9616 118.288 91.7434 118.624 91.587C118.968 91.4216 119.348 91.3438 119.729 91.361H120.855C121.237 91.361 121.614 91.361 121.986 91.361C122.072 91.3596 122.157 91.3768 122.236 91.4112C122.315 91.4408 122.386 91.4871 122.445 91.5468C122.502 91.6037 122.548 91.67 122.582 91.7427C122.615 91.8191 122.632 91.901 122.633 91.9838V96.5797C122.637 96.7613 122.578 96.9387 122.465 97.082C122.408 97.1501 122.335 97.2042 122.253 97.2399C122.171 97.2757 122.081 97.2921 121.991 97.288H115.664V96.0674ZM118.211 96.0674H121.334V92.677H119.714C119.523 92.6766 119.335 92.7196 119.164 92.8025C118.988 92.886 118.828 92.9981 118.69 93.134C118.549 93.2671 118.435 93.4257 118.354 93.6012C118.27 93.77 118.226 93.9556 118.227 94.1436L118.211 96.0674Z" fill="white"/>
<path d="M7.18796 80.6824C7.20389 81.3251 7.10029 81.9652 6.88231 82.571C6.7044 83.0615 6.40701 83.5013 6.01629 83.8518C5.61908 84.1934 5.14897 84.4423 4.64085 84.5802C4.01137 84.7457 3.36149 84.8234 2.71014 84.8112H0.697919C0.566559 84.8153 0.438111 84.7725 0.33623 84.6907C0.28452 84.6396 0.24456 84.5782 0.219068 84.5106C0.193576 84.443 0.183149 84.3708 0.188497 84.2989V77.302C0.183149 77.2301 0.193576 77.1579 0.219068 77.0903C0.24456 77.0226 0.28452 76.9612 0.33623 76.9102C0.438111 76.8284 0.566559 76.7856 0.697919 76.7897H2.85787C3.50394 76.7764 4.14824 76.8611 4.7682 77.0408C5.25946 77.1903 5.71156 77.444 6.0927 77.7842C6.45682 78.1231 6.73589 78.541 6.90778 79.0048C7.10515 79.5422 7.20013 80.111 7.18796 80.6824ZM5.41517 80.7377C5.41824 80.3799 5.37197 80.0233 5.27763 79.6778C5.18964 79.3672 5.03696 79.0781 4.82933 78.829C4.61243 78.583 4.34032 78.3904 4.03464 78.2664C3.62692 78.1202 3.19469 78.052 2.76108 78.0655H1.89506V83.5203H2.78655C3.1892 83.5309 3.5907 83.4731 3.9735 83.3496C4.28067 83.2425 4.55568 83.0612 4.7733 82.8222C5.00949 82.5756 5.18395 82.278 5.28272 81.9532C5.3867 81.5565 5.43132 81.147 5.41517 80.7377Z" fill="white"/>
<path d="M10.2597 77.1966C10.2729 77.313 10.2622 77.4308 10.228 77.5431C10.1939 77.6553 10.1371 77.7595 10.061 77.8495C9.84007 77.9933 9.57548 78.0572 9.31217 78.0304C9.04944 78.0591 8.78475 77.9969 8.56332 77.8546C8.4907 77.7688 8.43655 77.6693 8.40414 77.5622C8.37174 77.4552 8.36177 77.3427 8.37484 77.2317C8.34987 76.9959 8.41933 76.7598 8.56842 76.5737C8.79077 76.4289 9.05737 76.3649 9.32236 76.3929C9.58338 76.3658 9.84592 76.4279 10.0661 76.5687C10.1393 76.6553 10.1941 76.7555 10.2273 76.8633C10.2606 76.9712 10.2716 77.0845 10.2597 77.1966ZM10.1374 84.6003C10.1371 84.6406 10.1227 84.6797 10.0967 84.7108C10.06 84.7469 10.0143 84.7729 9.96423 84.7861C9.88284 84.8097 9.79919 84.8248 9.71462 84.8313C9.60764 84.8313 9.47519 84.8313 9.31727 84.8313C9.1849 84.838 9.05228 84.838 8.91992 84.8313C8.83528 84.8253 8.75157 84.8102 8.6703 84.7861C8.61874 84.7729 8.57142 84.7469 8.53276 84.7108C8.50816 84.6792 8.49555 84.6401 8.4971 84.6003V79.0751C8.49462 79.0352 8.50734 78.9958 8.53276 78.9646C8.57086 78.9266 8.61822 78.899 8.6703 78.8843C8.75099 78.8561 8.83479 78.8376 8.91992 78.829C9.0218 78.829 9.15425 78.829 9.31727 78.829C9.48028 78.829 9.61273 78.829 9.71462 78.829C9.79965 78.8382 9.88338 78.8567 9.96423 78.8843C10.0149 78.8989 10.0606 78.9267 10.0967 78.9646C10.1235 78.9953 10.138 79.0346 10.1374 79.0751V84.6003Z" fill="white"/>
<path d="M17.0046 79.4567C17.014 79.6058 16.9897 79.755 16.9332 79.8937C16.8874 79.9891 16.8263 80.0393 16.76 80.0393H16.0723C16.1741 80.1285 16.2527 80.2405 16.3015 80.3658C16.3425 80.4925 16.3631 80.6247 16.3627 80.7576C16.3686 81.0524 16.3113 81.3451 16.1946 81.6165C16.0782 81.8644 15.9036 82.0814 15.6851 82.2494C15.4607 82.4279 15.2028 82.561 14.9261 82.6412C14.6034 82.7333 14.2686 82.7773 13.9327 82.7718C13.7523 82.7735 13.5724 82.7515 13.3978 82.7065C13.2594 82.6783 13.1268 82.6274 13.0056 82.5558C12.9517 82.6152 12.9055 82.681 12.868 82.7517C12.8267 82.8272 12.8056 82.912 12.8069 82.9978C12.8076 83.0565 12.8229 83.1142 12.8513 83.1659C12.8797 83.2175 12.9204 83.2615 12.9699 83.2942C13.1119 83.3768 13.2738 83.4202 13.4386 83.4197L14.8497 83.47C15.148 83.4757 15.4442 83.5196 15.731 83.6006C15.9673 83.6654 16.1886 83.7746 16.3831 83.922C16.5557 84.0557 16.6936 84.2278 16.7855 84.4243C16.8845 84.6314 16.9334 84.8584 16.9281 85.0873C16.9293 85.3564 16.8647 85.6217 16.7397 85.8608C16.6031 86.1106 16.4095 86.3255 16.1742 86.4887C15.8844 86.6804 15.5641 86.823 15.2267 86.9106C14.7905 87.0194 14.3418 87.0717 13.892 87.0663C13.4679 87.0723 13.0444 87.0336 12.6286 86.9508C12.3264 86.8964 12.0355 86.7929 11.7677 86.6444C11.5536 86.5273 11.3771 86.3532 11.2583 86.1421C11.1554 85.9576 11.1028 85.7499 11.1054 85.5394C11.1058 85.4069 11.1247 85.275 11.1615 85.1476C11.1988 85.0219 11.2537 84.9018 11.3245 84.791C11.4004 84.6729 11.4892 84.5634 11.5894 84.4645C11.7004 84.3569 11.8196 84.2578 11.946 84.1681C11.7684 84.0809 11.6185 83.9471 11.513 83.7814C11.4116 83.6201 11.3586 83.4337 11.3602 83.2439C11.3569 83.0101 11.4167 82.7795 11.5334 82.5759C11.6567 82.3727 11.8114 82.1897 11.9918 82.0334C11.8375 81.8912 11.7129 81.7205 11.6251 81.5311C11.528 81.2901 11.4829 81.0318 11.4926 80.7727C11.4864 80.4752 11.5473 80.1801 11.6709 79.9087C11.7893 79.6592 11.9634 79.4394 12.1803 79.2658C12.4065 79.0835 12.6658 78.9454 12.9445 78.859C13.2617 78.7655 13.5915 78.7198 13.9225 78.7233C14.0928 78.7237 14.2629 78.7337 14.432 78.7535C14.5881 78.7728 14.7429 78.8013 14.8955 78.8389H16.76C16.8 78.8417 16.8382 78.8561 16.8699 78.8802C16.9016 78.9043 16.9254 78.9371 16.9383 78.9745C16.9955 79.1286 17.0181 79.2931 17.0046 79.4567ZM15.2827 85.1777C15.2834 85.0928 15.2623 85.0092 15.2213 84.9345C15.1803 84.8598 15.1208 84.7966 15.0484 84.7508C14.852 84.6391 14.628 84.5835 14.4014 84.5901L13.245 84.5599C13.1442 84.6238 13.0518 84.6997 12.9699 84.786C12.9105 84.8493 12.8576 84.9183 12.812 84.9919C12.7708 85.0488 12.743 85.114 12.7305 85.1828C12.723 85.2462 12.723 85.3102 12.7305 85.3736C12.7298 85.4757 12.7606 85.5755 12.8188 85.6598C12.8771 85.7442 12.96 85.809 13.0565 85.8458C13.3491 85.9682 13.6662 86.0232 13.9837 86.0065C14.1949 86.0127 14.4059 85.989 14.6103 85.9362C14.7589 85.8992 14.899 85.8344 15.0229 85.7453C15.1178 85.6786 15.1933 85.5886 15.242 85.4841C15.2781 85.3862 15.292 85.2816 15.2827 85.1777ZM14.8955 80.7626C14.9032 80.6357 14.8841 80.5085 14.8394 80.3892C14.7947 80.2699 14.7253 80.161 14.6357 80.0695C14.4344 79.8936 14.1707 79.8033 13.9022 79.8183C13.7572 79.8169 13.6134 79.8442 13.4793 79.8987C13.3626 79.9452 13.258 80.0174 13.1737 80.1097C13.0947 80.2013 13.0342 80.307 12.9954 80.4211C12.9586 80.5399 12.9398 80.6635 12.9394 80.7877C12.9331 80.9108 12.9529 81.0338 12.9977 81.1488C13.0424 81.2639 13.111 81.3684 13.1992 81.4558C13.3995 81.6256 13.6588 81.712 13.9225 81.6969C14.0683 81.699 14.2133 81.6752 14.3505 81.6266C14.466 81.58 14.5702 81.5098 14.6561 81.4206C14.7349 81.3326 14.7955 81.2302 14.8344 81.1193C14.877 81.005 14.8994 80.8844 14.9006 80.7626H14.8955Z" fill="white"/>
<path d="M19.8674 77.1966C19.8815 77.3134 19.8706 77.4318 19.8355 77.5443C19.8004 77.6567 19.7419 77.7607 19.6636 77.8495C19.4434 77.9948 19.1782 78.0589 18.9148 78.0304C18.6537 78.0583 18.3909 77.9962 18.171 77.8546C18.0975 77.7692 18.0424 77.6699 18.0091 77.5628C17.9759 77.4557 17.9651 77.3431 17.9775 77.2317C17.9647 77.1145 17.9757 76.996 18.0098 76.8831C18.0439 76.7701 18.1004 76.6649 18.1761 76.5737C18.3985 76.4289 18.6651 76.3649 18.9301 76.3929C19.1911 76.3658 19.4536 76.4279 19.6738 76.5687C19.747 76.6553 19.8018 76.7555 19.8351 76.8633C19.8683 76.9712 19.8793 77.0845 19.8674 77.1966ZM19.7451 84.6003C19.7448 84.6406 19.7304 84.6797 19.7044 84.7108C19.6677 84.7469 19.622 84.7729 19.5719 84.7861C19.4906 84.8097 19.4069 84.8248 19.3223 84.8313C19.2153 84.8313 19.0829 84.8313 18.925 84.8313C18.7926 84.838 18.66 84.838 18.5276 84.8313C18.443 84.8253 18.3593 84.8102 18.278 84.7861C18.2259 84.7742 18.1782 84.7481 18.1405 84.7108C18.1159 84.6792 18.1033 84.6401 18.1048 84.6003V79.0751C18.1023 79.0352 18.115 78.9958 18.1405 78.9646C18.1778 78.9257 18.2254 78.8978 18.278 78.8843C18.3587 78.8561 18.4425 78.8376 18.5276 78.829C18.6295 78.829 18.762 78.829 18.925 78.829C19.088 78.829 19.2204 78.829 19.3223 78.829C19.4074 78.8382 19.4911 78.8567 19.5719 78.8843C19.6226 78.8989 19.6683 78.9267 19.7044 78.9646C19.7312 78.9953 19.7457 79.0346 19.7451 79.0751V84.6003Z" fill="white"/>
<path d="M24.8038 84.0577C24.8083 84.1976 24.7963 84.3375 24.7681 84.4746C24.755 84.5496 24.7235 84.6203 24.6764 84.6806C24.6239 84.7235 24.5656 84.759 24.5032 84.786C24.4168 84.8186 24.3283 84.8455 24.2383 84.8664C24.1273 84.8896 24.0151 84.9063 23.9021 84.9166C23.7817 84.9243 23.6608 84.9243 23.5404 84.9166C23.2538 84.9219 22.9681 84.8812 22.6948 84.7961C22.4692 84.7283 22.2655 84.6036 22.1038 84.4344C21.9394 84.2592 21.8205 84.0472 21.7574 83.8166C21.6808 83.5299 21.6448 83.2341 21.6504 82.9376V80.1047H20.9525C20.9098 80.1024 20.8687 80.0872 20.835 80.0612C20.8013 80.0351 20.7765 79.9995 20.764 79.9591C20.7077 79.7978 20.6852 79.6269 20.6978 79.4568C20.6917 79.3564 20.6917 79.2558 20.6978 79.1554C20.7023 79.0875 20.7196 79.0211 20.7488 78.9595C20.7627 78.9161 20.7915 78.8788 20.8303 78.854C20.8636 78.8329 20.9027 78.8224 20.9423 78.8239H21.6504V77.5933C21.649 77.5519 21.6615 77.5113 21.6861 77.4778C21.7191 77.4386 21.7636 77.4106 21.8135 77.3974C21.8956 77.3689 21.9813 77.352 22.0682 77.3472C22.1751 77.3472 22.3076 77.3472 22.4604 77.3472C22.6133 77.3472 22.7559 77.3472 22.8629 77.3472C22.9481 77.352 23.0322 77.3689 23.1125 77.3974C23.1631 77.412 23.2089 77.4398 23.2449 77.4778C23.2695 77.5113 23.2821 77.5519 23.2806 77.5933V78.8591H24.544C24.5851 78.8583 24.6256 78.8687 24.6611 78.8892C24.6969 78.917 24.7249 78.9533 24.7426 78.9947C24.7673 79.0575 24.7827 79.1234 24.7885 79.1906C24.7946 79.2909 24.7946 79.3916 24.7885 79.4919C24.7993 79.6616 24.7786 79.8319 24.7274 79.9942C24.7143 80.0343 24.6893 80.0695 24.6557 80.0955C24.6221 80.1214 24.5814 80.1369 24.5389 80.1399H23.2806V82.7367C23.2712 82.9607 23.324 83.1831 23.4334 83.3796C23.4925 83.4562 23.5701 83.5169 23.6591 83.5564C23.748 83.5958 23.8456 83.6128 23.9428 83.6057C24.019 83.6142 24.0959 83.6142 24.1721 83.6057C24.236 83.5932 24.299 83.5764 24.3606 83.5554L24.4981 83.5052C24.5317 83.4986 24.5664 83.4986 24.6 83.5052C24.6232 83.4979 24.6481 83.4979 24.6713 83.5052C24.6863 83.5158 24.699 83.5293 24.7087 83.5448C24.7183 83.5603 24.7246 83.5776 24.7274 83.5956C24.7452 83.6529 24.7572 83.7118 24.763 83.7714C24.783 83.8659 24.7966 83.9615 24.8038 84.0577Z" fill="white"/>
<path d="M30.7793 84.6204C30.7803 84.6467 30.7748 84.6727 30.7633 84.6964C30.7517 84.72 30.7345 84.7405 30.7131 84.7561C30.6524 84.7963 30.5822 84.8205 30.5093 84.8264C30.3726 84.8453 30.2347 84.8537 30.0967 84.8515C29.9536 84.8543 29.8105 84.8459 29.6687 84.8264C29.6004 84.821 29.5351 84.7966 29.4803 84.7561C29.4621 84.7384 29.4478 84.7172 29.4381 84.6939C29.4285 84.6706 29.4238 84.6456 29.4242 84.6204V84.1784C29.1927 84.4196 28.9159 84.614 28.6092 84.751C28.2879 84.8887 27.9406 84.9573 27.5903 84.952C27.3028 84.9556 27.0163 84.9184 26.7396 84.8414C26.4955 84.7708 26.2672 84.6548 26.0671 84.4999C25.8778 84.3494 25.7276 84.1565 25.629 83.9373C25.5206 83.6919 25.4667 83.4264 25.4711 83.1588C25.4638 82.8655 25.5322 82.5751 25.6698 82.3149C25.8114 82.0699 26.0173 81.8669 26.2658 81.7273C26.5686 81.556 26.8997 81.4386 27.2439 81.3807C27.693 81.3039 28.1482 81.2669 28.6041 81.2702H29.1695V80.9387C29.1738 80.7844 29.155 80.6304 29.1135 80.4816C29.0834 80.3599 29.02 80.2486 28.9302 80.16C28.8403 80.0714 28.7275 80.0089 28.6041 79.9793C28.438 79.935 28.2666 79.9131 28.0946 79.914C27.8471 79.9112 27.6003 79.9416 27.3611 80.0044C27.1678 80.0535 26.9788 80.1173 26.7956 80.1953C26.6275 80.2656 26.49 80.3309 26.3779 80.3861C26.2969 80.4379 26.2041 80.469 26.1079 80.4766C26.0615 80.4762 26.0165 80.4603 25.9805 80.4314C25.9409 80.3978 25.911 80.3545 25.8939 80.3058C25.8649 80.2438 25.846 80.1777 25.8379 80.1099C25.8297 80.023 25.8297 79.9356 25.8379 79.8487C25.835 79.7457 25.8452 79.6428 25.8685 79.5423C25.8952 79.4668 25.9387 79.3982 25.9958 79.3414C26.0884 79.2581 26.1954 79.1918 26.3117 79.1455C26.4756 79.065 26.646 78.9978 26.8211 78.9446C27.0394 78.8769 27.2625 78.8249 27.4884 78.7889C27.7346 78.7524 27.9832 78.734 28.2322 78.7336C28.6266 78.7256 29.0204 78.7678 29.4039 78.8592C29.6948 78.9306 29.9661 79.0643 30.1985 79.251C30.4116 79.4312 30.5703 79.6658 30.657 79.9291C30.7613 80.2537 30.8095 80.5933 30.7997 80.9336L30.7793 84.6204ZM29.1695 82.2496H28.5276C28.3005 82.2471 28.0737 82.2656 27.8501 82.3049C27.6881 82.3342 27.5328 82.392 27.3916 82.4757C27.2833 82.5393 27.195 82.6315 27.1369 82.7419C27.0796 82.8557 27.0516 82.9816 27.0554 83.1086C27.0499 83.2101 27.0677 83.3116 27.1073 83.4055C27.147 83.4995 27.2076 83.5833 27.2847 83.651C27.4655 83.7949 27.6946 83.8667 27.9265 83.8519C28.1508 83.8544 28.3712 83.7953 28.5633 83.6812C28.7829 83.5435 28.9804 83.3742 29.1491 83.1789L29.1695 82.2496Z" fill="white"/>
<path d="M34.0549 84.6002C34.0546 84.6405 34.0402 84.6796 34.0141 84.7107C33.9775 84.7468 33.9318 84.7728 33.8817 84.786C33.8003 84.8096 33.7166 84.8247 33.6321 84.8312C33.5251 84.8312 33.3926 84.8312 33.2347 84.8312C33.1024 84.8379 32.9697 84.8379 32.8374 84.8312C32.7527 84.8252 32.669 84.8101 32.5878 84.786C32.5357 84.7741 32.488 84.748 32.4502 84.7107C32.4256 84.6791 32.413 84.64 32.4146 84.6002V76.4481C32.413 76.4082 32.4256 76.3692 32.4502 76.3375C32.4869 76.2968 32.5346 76.2671 32.5878 76.2522C32.6687 76.2261 32.7525 76.2092 32.8374 76.2019C32.9697 76.1928 33.1024 76.1928 33.2347 76.2019C33.367 76.1931 33.4998 76.1931 33.6321 76.2019C33.7169 76.2098 33.8006 76.2266 33.8817 76.2522C33.9328 76.2684 33.9785 76.2979 34.0141 76.3375C34.0402 76.3687 34.0546 76.4077 34.0549 76.4481V84.6002Z" fill="white"/>
<path d="M44.6254 83.5955C44.631 83.6842 44.631 83.7731 44.6254 83.8617C44.6288 83.9236 44.6288 83.9857 44.6254 84.0476C44.6138 84.0938 44.5949 84.1379 44.5693 84.1782C44.5411 84.2258 44.5069 84.2697 44.4674 84.3088C44.3834 84.3797 44.2911 84.4404 44.1923 84.4896C44.0287 84.5749 43.8583 84.6471 43.6829 84.7056C43.4616 84.7773 43.2351 84.8327 43.0054 84.8713C42.7347 84.9191 42.4602 84.9427 42.1852 84.9416C41.6525 84.9495 41.1228 84.8628 40.6213 84.6855C40.1709 84.5276 39.7644 84.2679 39.4343 83.927C39.0941 83.5659 38.8385 83.1355 38.6855 82.6663C38.5019 82.0965 38.4142 81.501 38.4257 80.9033C38.4153 80.2868 38.5135 79.6733 38.7161 79.09C38.8831 78.5936 39.1558 78.138 39.5158 77.7539C39.8603 77.3957 40.2815 77.1177 40.7486 76.9402C41.254 76.7488 41.7916 76.6534 42.333 76.6589C42.5599 76.6592 42.7865 76.6777 43.0105 76.7142C43.214 76.7491 43.4148 76.7978 43.6116 76.8598C43.7866 76.9152 43.957 76.9841 44.121 77.0658C44.2332 77.1209 44.3376 77.1901 44.4318 77.2717C44.4761 77.3122 44.5155 77.3577 44.5489 77.4073C44.5752 77.4527 44.5941 77.5019 44.605 77.553C44.6087 77.6199 44.6087 77.687 44.605 77.7539C44.6107 77.8509 44.6107 77.9482 44.605 78.0452C44.605 78.1708 44.605 78.2763 44.605 78.3617C44.599 78.4336 44.5836 78.5046 44.5591 78.5726C44.5412 78.6182 44.5133 78.6593 44.4776 78.6932C44.4494 78.7172 44.413 78.7297 44.3757 78.7284C44.2839 78.718 44.1971 78.6813 44.1261 78.6229C44.0028 78.5324 43.8734 78.4502 43.739 78.3767C43.5575 78.2812 43.3684 78.2006 43.1735 78.1356C42.9192 78.0604 42.6545 78.0248 42.389 78.0302C42.0787 78.0253 41.7716 78.0924 41.4924 78.2261C41.2293 78.3587 41.0009 78.5495 40.8251 78.7836C40.6302 79.0465 40.4868 79.3429 40.4022 79.6576C40.2996 80.0361 40.2465 80.426 40.2443 80.8179C40.2369 81.2314 40.2883 81.644 40.3971 82.0434C40.4824 82.3546 40.6315 82.6453 40.8353 82.8973C41.0187 83.1162 41.2528 83.2885 41.5179 83.3996C41.8042 83.5137 42.1108 83.57 42.4196 83.5654C42.6867 83.5705 42.953 83.5349 43.2092 83.4599C43.4063 83.403 43.5974 83.3273 43.7797 83.2339C43.9124 83.1666 44.0417 83.0929 44.1669 83.0129C44.2365 82.9595 44.319 82.9249 44.4063 82.9124C44.4419 82.9116 44.4771 82.9203 44.5082 82.9375C44.5415 82.9623 44.5649 82.9979 44.5744 83.038C44.5963 83.1048 44.61 83.1739 44.6152 83.2439C44.6254 83.3293 44.6254 83.4498 44.6254 83.5955Z" fill="white"/>
<path d="M51.2683 84.6002C51.2692 84.6392 51.2586 84.6776 51.2377 84.7107C51.2064 84.7459 51.1659 84.772 51.1205 84.7861C51.0515 84.8101 50.9796 84.8253 50.9066 84.8313C50.7946 84.8379 50.6823 84.8379 50.5704 84.8313C50.455 84.838 50.3393 84.838 50.224 84.8313C50.1511 84.8248 50.0792 84.8096 50.01 84.7861C49.9675 84.7721 49.9303 84.7458 49.903 84.7107C49.8784 84.6791 49.8658 84.64 49.8674 84.6002V83.9623C49.591 84.2615 49.2655 84.5128 48.9046 84.7057C48.5893 84.8655 48.2402 84.9498 47.8857 84.9518C47.5363 84.9653 47.1883 84.9018 46.8669 84.766C46.6082 84.6562 46.382 84.4833 46.2097 84.2637C46.0383 84.0432 45.9152 83.7901 45.848 83.5203C45.7701 83.1724 45.7342 82.8167 45.7411 82.4605V79.075C45.7421 79.0372 45.7545 79.0005 45.7767 78.9696C45.8115 78.9301 45.8577 78.902 45.9092 78.8892C45.9922 78.8652 46.0776 78.8501 46.1639 78.844C46.2709 78.844 46.3982 78.844 46.5561 78.844C46.714 78.844 46.8516 78.844 46.9535 78.844C47.0381 78.85 47.1218 78.8651 47.2031 78.8892C47.2551 78.9007 47.3017 78.929 47.3355 78.9696C47.3494 78.9834 47.3601 78.9999 47.3671 79.0181C47.3741 79.0363 47.3773 79.0556 47.3763 79.075V82.1993C47.3693 82.4219 47.3898 82.6446 47.4374 82.8623C47.4685 83.0053 47.5292 83.1404 47.6157 83.2591C47.6966 83.3649 47.8012 83.4509 47.9214 83.5102C48.0565 83.5735 48.2049 83.6045 48.3544 83.6007C48.5811 83.5956 48.8005 83.52 48.981 83.3847C49.2314 83.2027 49.4574 82.99 49.6534 82.7518V79.075C49.6544 79.0372 49.6668 79.0005 49.6891 78.9696C49.7239 78.9301 49.7701 78.902 49.8215 78.8892C49.9029 78.8656 49.9866 78.8505 50.0711 78.844C50.1764 78.844 50.3089 78.844 50.4685 78.844C50.6281 78.844 50.7606 78.844 50.8658 78.844C50.9505 78.85 51.0342 78.8651 51.1155 78.8892C51.1656 78.9017 51.2103 78.9299 51.2428 78.9696C51.2689 78.9987 51.2834 79.0362 51.2836 79.075L51.2683 84.6002Z" fill="white"/>
<path d="M54.554 84.6001C54.5556 84.64 54.543 84.679 54.5184 84.7107C54.4806 84.748 54.4329 84.7741 54.3808 84.786C54.2996 84.8101 54.2159 84.8252 54.1312 84.8312C53.9989 84.8378 53.8662 84.8378 53.7339 84.8312C53.5759 84.8312 53.4435 84.8312 53.3365 84.8312C53.252 84.8242 53.1684 84.8091 53.0869 84.786C53.0368 84.7728 52.9911 84.7468 52.9544 84.7107C52.9284 84.6795 52.914 84.6405 52.9137 84.6001V76.448C52.9232 76.4079 52.9466 76.3724 52.9799 76.3476C53.0155 76.3079 53.0613 76.2785 53.1124 76.2622C53.1936 76.2371 53.2773 76.2203 53.362 76.2119C53.4943 76.2031 53.627 76.2031 53.7593 76.2119C53.8916 76.2028 54.0244 76.2028 54.1567 76.2119C54.2416 76.2192 54.3253 76.2361 54.4063 76.2622C54.4595 76.2771 54.5072 76.3068 54.5438 76.3476C54.5684 76.3792 54.5811 76.4183 54.5795 76.4581L54.554 84.6001Z" fill="white"/>
<path d="M59.6279 84.0577C59.6324 84.1976 59.6204 84.3375 59.5922 84.4746C59.5778 84.5501 59.5445 84.6209 59.4954 84.6806C59.4449 84.7236 59.3882 84.7591 59.3273 84.786C59.2392 84.8186 59.149 84.8455 59.0573 84.8664C58.948 84.8892 58.8374 84.906 58.7262 84.9166C58.6058 84.9243 58.4849 84.9243 58.3645 84.9166C58.0778 84.9223 57.7922 84.8816 57.5189 84.7961C57.2927 84.7296 57.0887 84.6047 56.9279 84.4344C56.7616 84.2605 56.6425 84.048 56.5815 83.8166C56.5005 83.5307 56.4627 83.2345 56.4694 82.9376V80.1047H55.7715C55.729 80.1017 55.6883 80.0863 55.6547 80.0603C55.6211 80.0344 55.5962 79.9991 55.5831 79.9591C55.5318 79.7967 55.5111 79.6265 55.5219 79.4568C55.5158 79.3564 55.5158 79.2558 55.5219 79.1554C55.5277 79.0883 55.5431 79.0223 55.5678 78.9595C55.5855 78.9181 55.6135 78.8818 55.6493 78.854C55.6848 78.8336 55.7253 78.8231 55.7664 78.8239H56.4542V77.5933C56.4527 77.5519 56.4652 77.5113 56.4898 77.4778C56.525 77.4387 56.5711 77.4108 56.6223 77.3974C56.7044 77.3689 56.7901 77.352 56.877 77.3472C56.9789 77.3472 57.1113 77.3472 57.2692 77.3472C57.4272 77.3472 57.5647 77.3472 57.6666 77.3472C57.7535 77.352 57.8392 77.3689 57.9213 77.3974C57.9705 77.4119 58.0147 77.4398 58.0487 77.4778C58.0747 77.5108 58.089 77.5514 58.0894 77.5933V78.8591H59.3528C59.3923 78.8582 59.4313 78.8686 59.4649 78.8892C59.5036 78.9139 59.5325 78.9512 59.5464 78.9947C59.5731 79.0571 59.5903 79.1231 59.5973 79.1906C59.6034 79.2909 59.6034 79.3916 59.5973 79.4919C59.6099 79.6621 59.5874 79.8329 59.5311 79.9942C59.5186 80.0346 59.4938 80.0703 59.4601 80.0963C59.4264 80.1224 59.3854 80.1376 59.3426 80.1399H58.0741V82.7367C58.0592 82.9718 58.1103 83.2065 58.2219 83.4148C58.284 83.4944 58.3658 83.557 58.4594 83.5966C58.5531 83.6361 58.6554 83.6514 58.7568 83.6408C58.8346 83.6492 58.9132 83.6492 58.9911 83.6408C59.055 83.6284 59.118 83.6116 59.1796 83.5906L59.312 83.5404C59.3457 83.5341 59.3802 83.5341 59.4139 83.5404C59.4389 83.5335 59.4653 83.5335 59.4903 83.5404C59.5191 83.5631 59.539 83.5951 59.5464 83.6308C59.5618 83.6886 59.5737 83.7473 59.582 83.8066C59.6023 83.8893 59.6176 83.9732 59.6279 84.0577Z" fill="white"/>
<path d="M66.3217 84.6002C66.3232 84.64 66.3106 84.6791 66.286 84.7107C66.2577 84.7469 66.2184 84.7733 66.1739 84.7861C66.1046 84.8091 66.0328 84.8242 65.96 84.8313C65.848 84.8377 65.7357 84.8377 65.6237 84.8313C65.5084 84.838 65.3927 84.838 65.2773 84.8313C65.2043 84.8253 65.1324 84.8101 65.0634 84.7861C65.0201 84.7708 64.9816 84.7448 64.9513 84.7107C64.9305 84.6776 64.9198 84.6392 64.9207 84.6002V83.9623C64.6397 84.2629 64.309 84.5143 63.9426 84.7057C63.6274 84.8655 63.2783 84.9498 62.9238 84.9518C62.5744 84.9653 62.2264 84.9018 61.905 84.766C61.6454 84.6576 61.419 84.4845 61.2478 84.2637C61.0764 84.0432 60.9533 83.7901 60.8861 83.5203C60.8082 83.1724 60.7723 82.8167 60.7791 82.4605V79.075C60.7801 79.0372 60.7926 79.0005 60.8148 78.9696C60.8486 78.929 60.8953 78.9007 60.9472 78.8892C61.0303 78.8652 61.1157 78.8501 61.202 78.844C61.3089 78.844 61.4363 78.844 61.5942 78.844C61.7521 78.844 61.8846 78.844 61.9916 78.844C62.0761 78.8505 62.1598 78.8656 62.2412 78.8892C62.2932 78.9007 62.3398 78.929 62.3736 78.9696C62.3997 78.9987 62.4142 79.0362 62.4144 79.075V82.1993C62.4074 82.4219 62.4279 82.6446 62.4755 82.8623C62.5065 83.0053 62.5673 83.1404 62.6538 83.2591C62.7323 83.3672 62.8375 83.4536 62.9595 83.5102C63.0946 83.5735 63.2429 83.6045 63.3925 83.6007C63.6192 83.5956 63.8385 83.52 64.0191 83.3847C64.2695 83.2027 64.4955 82.99 64.6915 82.7518V79.075C64.6925 79.0372 64.7049 79.0005 64.7272 78.9696C64.762 78.9301 64.8082 78.902 64.8596 78.8892C64.941 78.8656 65.0247 78.8505 65.1092 78.844C65.2145 78.844 65.347 78.844 65.5066 78.844C65.6662 78.844 65.7986 78.844 65.9039 78.844C65.9886 78.85 66.0723 78.8651 66.1535 78.8892C66.2037 78.9017 66.2484 78.9299 66.2809 78.9696C66.307 78.9987 66.3214 79.0362 66.3217 79.075V84.6002Z" fill="white"/>
<path d="M71.7012 79.5875C71.7074 79.708 71.7074 79.8287 71.7012 79.9492C71.6965 80.0258 71.6828 80.1016 71.6605 80.1752C71.6494 80.2174 71.6265 80.2558 71.5942 80.2857C71.5625 80.3061 71.5252 80.3166 71.4873 80.3158C71.4485 80.3226 71.4089 80.3226 71.3701 80.3158L71.2224 80.2706L71.0441 80.2204C70.973 80.2125 70.9012 80.2125 70.8301 80.2204C70.7357 80.2218 70.6424 80.2405 70.555 80.2756C70.4528 80.3159 70.3568 80.37 70.2698 80.4364C70.1591 80.5259 70.0568 80.6251 69.9641 80.7327C69.8622 80.8583 69.745 81.014 69.6228 81.1948V84.6405C69.6243 84.6803 69.6117 84.7194 69.5871 84.751C69.5494 84.7884 69.5017 84.8145 69.4496 84.8264C69.3683 84.8504 69.2846 84.8656 69.2 84.8716C69.0676 84.8782 68.935 84.8782 68.8026 84.8716C68.6447 84.8716 68.5122 84.8716 68.4053 84.8716C68.3207 84.8651 68.237 84.8499 68.1556 84.8264C68.1056 84.8132 68.0599 84.7872 68.0232 84.751C67.9972 84.7199 67.9828 84.6809 67.9824 84.6405V79.1154C67.9808 79.0771 67.9935 79.0395 68.0181 79.0099C68.0464 78.9704 68.0879 78.9419 68.1353 78.9295C68.2046 78.9065 68.2764 78.8914 68.3492 78.8843C68.4612 78.8783 68.5735 78.8783 68.6855 78.8843C68.8008 78.8782 68.9165 78.8782 69.0319 78.8843C69.1049 78.8902 69.1768 78.9054 69.2458 78.9295C69.2883 78.9461 69.3253 78.9739 69.3528 79.0099C69.3735 79.0412 69.3842 79.078 69.3834 79.1154V79.8035C69.5147 79.6271 69.6577 79.4593 69.8113 79.3012C69.9293 79.1832 70.059 79.0772 70.1984 78.9848C70.3084 78.9093 70.4307 78.8532 70.5601 78.819C70.6801 78.7894 70.8032 78.7742 70.9269 78.7738C70.9879 78.7691 71.0493 78.7691 71.1103 78.7738C71.1772 78.7789 71.2436 78.789 71.309 78.8039C71.3714 78.8157 71.4327 78.8325 71.4924 78.8542C71.5334 78.8642 71.5717 78.883 71.6044 78.9094C71.6277 78.929 71.6467 78.9529 71.6605 78.9797C71.6732 79.0121 71.6817 79.0458 71.686 79.0802C71.6906 79.1454 71.6906 79.2109 71.686 79.2761C71.6961 79.3163 71.7012 79.4368 71.7012 79.5875Z" fill="white"/>
<path d="M77.9008 81.672C77.9129 81.8241 77.8655 81.9751 77.7684 82.0939C77.7192 82.1408 77.6609 82.1774 77.597 82.2015C77.5331 82.2257 77.4649 82.2369 77.3965 82.2345H73.8662C73.8638 82.4505 73.8947 82.6656 73.9579 82.8725C74.0062 83.0608 74.1026 83.2337 74.2381 83.3747C74.3788 83.5178 74.5541 83.6232 74.7475 83.6811C74.9808 83.7565 75.2254 83.7921 75.4709 83.7866C75.7235 83.7895 75.9759 83.7693 76.2248 83.7263C76.4159 83.6944 76.6047 83.6507 76.7903 83.5957C76.9482 83.5505 77.0807 83.5053 77.1825 83.4651C77.2641 83.4341 77.35 83.4155 77.4373 83.4099C77.4689 83.4014 77.5024 83.4014 77.534 83.4099C77.5637 83.4275 77.5869 83.4538 77.6003 83.4852C77.6203 83.5367 77.6323 83.5909 77.6359 83.646C77.6359 83.7113 77.6359 83.8017 77.6359 83.9021C77.6359 84.0026 77.6359 84.0729 77.6359 84.1332C77.6397 84.1884 77.6397 84.2438 77.6359 84.2989C77.6294 84.3395 77.6156 84.3787 77.5952 84.4145C77.5766 84.4469 77.5544 84.4773 77.529 84.5049C77.4574 84.5551 77.3783 84.5941 77.2946 84.6204C77.1391 84.6812 76.979 84.7299 76.8158 84.7661C76.5943 84.8207 76.3697 84.8627 76.1433 84.8916C75.8766 84.927 75.6076 84.9438 75.3384 84.9419C74.878 84.9507 74.419 84.888 73.9783 84.756C73.6133 84.6472 73.2798 84.4544 73.0053 84.1935C72.7356 83.9269 72.5362 83.5992 72.4245 83.2391C72.2886 82.8015 72.2232 82.3456 72.231 81.888C72.2239 81.4362 72.2928 80.9865 72.4347 80.5569C72.5565 80.1853 72.7561 79.843 73.0206 79.5523C73.2786 79.2756 73.5975 79.0608 73.9528 78.9245C74.3492 78.7742 74.7712 78.7009 75.1958 78.7085C75.6193 78.6972 76.0411 78.7654 76.4388 78.9094C76.7592 79.0281 77.0472 79.2188 77.2798 79.4664C77.5124 79.7141 77.6831 80.0118 77.7786 80.3359C77.8873 80.6857 77.9406 81.05 77.9365 81.4158L77.9008 81.672ZM76.3114 81.23C76.3427 80.8642 76.2455 80.4989 76.0363 80.1953C75.9247 80.0653 75.7833 79.9634 75.6239 79.8979C75.4645 79.8324 75.2916 79.8052 75.1194 79.8185C74.9311 79.8148 74.7444 79.8543 74.5743 79.9341C74.424 80.0024 74.2929 80.1059 74.1922 80.2354C74.0854 80.3661 74.0058 80.5163 73.9579 80.6775C73.9018 80.8568 73.8693 81.0425 73.8611 81.23H76.3114Z" fill="white"/>
<path d="M87.3558 82.4053C87.3629 82.7896 87.2774 83.1701 87.1062 83.5154C86.946 83.8282 86.7161 84.1013 86.4337 84.314C86.1378 84.5331 85.8024 84.695 85.4454 84.7912C85.0513 84.9024 84.6429 84.9566 84.233 84.9519C83.9616 84.9543 83.6905 84.9324 83.423 84.8866C83.2 84.8482 82.9803 84.7927 82.7659 84.7208C82.6005 84.668 82.4403 84.6008 82.287 84.5199C82.1855 84.4708 82.0912 84.4083 82.0068 84.3341C81.9451 84.2705 81.9042 84.1899 81.8897 84.103C81.8611 83.9592 81.8491 83.8126 81.854 83.666C81.8481 83.559 81.8481 83.4517 81.854 83.3446C81.8613 83.2732 81.8749 83.2026 81.8948 83.1336C81.9073 83.0869 81.9362 83.046 81.9763 83.0181C82.0083 82.9938 82.048 82.9814 82.0883 82.9829C82.1818 82.9955 82.2709 83.0299 82.3482 83.0834C82.4835 83.1685 82.6248 83.2441 82.771 83.3094C82.9704 83.4041 83.1785 83.4798 83.3925 83.5354C83.6661 83.6099 83.9492 83.6454 84.233 83.6409C84.4222 83.6424 84.6106 83.6188 84.7934 83.5706C84.9442 83.5277 85.0858 83.4579 85.2111 83.3647C85.3261 83.2818 85.4173 83.1711 85.476 83.0432C85.5379 82.9092 85.5692 82.7635 85.5677 82.6163C85.57 82.4474 85.5144 82.2828 85.4098 82.1491C85.2969 82.0097 85.1587 81.8922 85.0022 81.8026C84.8191 81.6941 84.6284 81.5985 84.4317 81.5162L83.7745 81.235C83.5494 81.1348 83.33 81.0225 83.1174 80.8984C82.9054 80.7746 82.7131 80.6206 82.5468 80.4414C82.3742 80.2595 82.2362 80.0485 82.1393 79.8185C81.9131 79.2089 81.9387 78.5361 82.2106 77.945C82.3532 77.6609 82.5607 77.4133 82.8168 77.2217C83.0832 77.0198 83.3882 76.8729 83.7134 76.7897C84.0702 76.6936 84.4388 76.6462 84.8087 76.6491C85.0098 76.6473 85.2108 76.6607 85.4098 76.6893C85.5991 76.7172 85.7863 76.7575 85.9701 76.8098C86.1282 76.8549 86.2831 76.9103 86.4337 76.9756C86.5288 77.0154 86.6179 77.0677 86.6986 77.1313C86.7341 77.1606 86.7635 77.1965 86.7852 77.2368C86.8042 77.2732 86.818 77.3121 86.826 77.3523C86.8325 77.4107 86.8325 77.4697 86.826 77.5281C86.826 77.6034 86.826 77.6938 86.826 77.7993C86.826 77.9048 86.826 78.0203 86.826 78.1057C86.8192 78.1735 86.8073 78.2406 86.7903 78.3066C86.7805 78.3512 86.7595 78.3927 86.7292 78.4272C86.696 78.453 86.6542 78.4656 86.612 78.4623C86.532 78.4497 86.4557 78.4206 86.3879 78.3769C86.2809 78.3167 86.1535 78.2564 86.0007 78.1861C85.8352 78.1132 85.6651 78.0511 85.4913 78.0002C85.2769 77.9445 85.0559 77.9175 84.8341 77.9199C84.6618 77.9136 84.4897 77.9357 84.3247 77.9852C84.1971 78.0206 84.0777 78.0804 83.9732 78.161C83.8837 78.2366 83.8123 78.331 83.7643 78.4372C83.7194 78.5456 83.6969 78.6617 83.6981 78.7788C83.6947 78.9454 83.7486 79.1083 83.851 79.2409C83.9647 79.3814 84.1048 79.4991 84.2636 79.5875C84.4498 79.6969 84.6439 79.7926 84.8443 79.8738C85.0583 79.9642 85.2824 80.0546 85.5066 80.1551C85.7307 80.2555 85.9549 80.366 86.1739 80.4916C86.3839 80.6184 86.5773 80.7702 86.7496 80.9436C86.9379 81.138 87.0853 81.3673 87.1832 81.6182C87.2812 81.869 87.3277 82.1366 87.3201 82.4053H87.3558Z" fill="white"/>
<path d="M92.9594 83.7212C92.9594 83.8266 92.9594 83.9171 92.9594 83.9924C92.9548 84.0531 92.9463 84.1135 92.9339 84.1732C92.9255 84.2149 92.9118 84.2555 92.8931 84.2938C92.8667 84.3396 92.8322 84.3804 92.7912 84.4143C92.709 84.4798 92.6202 84.5371 92.5264 84.5851C92.3901 84.6592 92.2468 84.7197 92.0984 84.7659C91.7405 84.8845 91.3655 84.9456 90.9879 84.9467C90.5834 84.9535 90.1811 84.8871 89.8009 84.7509C89.4686 84.6263 89.1716 84.4247 88.9349 84.1632C88.6909 83.8893 88.5086 83.5674 88.4 83.2189C88.1492 82.3296 88.1634 81.388 88.4408 80.5065C88.5668 80.1313 88.7756 79.7882 89.0521 79.5019C89.3095 79.2376 89.6249 79.0348 89.9741 78.9093C90.3507 78.7797 90.747 78.7151 91.1458 78.7184C91.3167 78.718 91.4872 78.7331 91.6552 78.7636C91.8148 78.7874 91.9717 78.826 92.1239 78.8791C92.2587 78.9246 92.3898 78.98 92.5162 79.0449C92.6039 79.0887 92.6859 79.1426 92.7607 79.2056C92.7969 79.2421 92.8309 79.2807 92.8626 79.3211C92.8848 79.3584 92.9003 79.3992 92.9084 79.4417C92.9126 79.5036 92.9126 79.5656 92.9084 79.6275C92.9084 79.6978 92.9084 79.7883 92.9084 79.8887C92.9192 80.0588 92.8967 80.2293 92.8422 80.391C92.8014 80.4864 92.7403 80.5367 92.6741 80.5367C92.589 80.5324 92.5072 80.5026 92.4398 80.4513C92.3582 80.391 92.2564 80.3257 92.1443 80.2554C92.0168 80.1789 91.882 80.115 91.7418 80.0645C91.5614 80.0046 91.3719 79.9757 91.1815 79.9791C90.9918 79.9702 90.803 80.0083 90.6321 80.0899C90.4612 80.1715 90.3139 80.294 90.2034 80.4462C89.9522 80.8589 89.8349 81.3373 89.8672 81.8175C89.864 82.0828 89.8931 82.3476 89.9538 82.6061C89.9995 82.8108 90.0842 83.0051 90.2034 83.1787C90.31 83.3265 90.454 83.4443 90.6211 83.5202C90.8039 83.5999 91.0021 83.6393 91.2019 83.6358C91.3999 83.6414 91.5971 83.609 91.7826 83.5403C91.9322 83.4827 92.0756 83.4103 92.2105 83.3244C92.3328 83.249 92.4347 83.1737 92.5162 83.1134C92.5732 83.0597 92.6466 83.0261 92.725 83.018C92.7599 83.0164 92.7942 83.0271 92.8218 83.0481C92.8543 83.0791 92.8758 83.1196 92.8829 83.1636C92.9024 83.2325 92.9144 83.3032 92.9186 83.3746C92.9389 83.4892 92.9525 83.605 92.9594 83.7212Z" fill="white"/>
<path d="M99.6889 84.6002C99.6904 84.64 99.6778 84.6791 99.6532 84.7107C99.6165 84.7468 99.5709 84.7728 99.5208 84.786C99.4395 84.8101 99.3558 84.8252 99.2712 84.8312C99.1642 84.8312 99.0317 84.8312 98.8789 84.8312C98.7261 84.8312 98.5834 84.8312 98.4765 84.8312C98.3918 84.8252 98.3081 84.8101 98.2268 84.786C98.1768 84.7728 98.1311 84.7468 98.0944 84.7107C98.0698 84.6791 98.0572 84.64 98.0587 84.6002V81.4458C98.0649 81.2332 98.0443 81.0206 97.9976 80.8129C97.9604 80.6727 97.8984 80.54 97.8142 80.4211C97.7381 80.3116 97.6346 80.2233 97.5136 80.165C97.3783 80.1023 97.2301 80.0713 97.0806 80.0746C96.8525 80.0802 96.6317 80.1557 96.449 80.2906C96.1996 80.4704 95.9768 80.6834 95.7867 80.9234V84.6002C95.7864 84.6405 95.772 84.6796 95.746 84.7107C95.7093 84.7468 95.6636 84.7728 95.6135 84.786C95.532 84.8091 95.4484 84.8243 95.3639 84.8312C95.2569 84.8312 95.1245 84.8312 94.9665 84.8312C94.8342 84.8379 94.7016 84.8379 94.5692 84.8312C94.483 84.8247 94.3976 84.8095 94.3145 84.786C94.2644 84.7728 94.2187 84.7468 94.182 84.7107C94.1574 84.6791 94.1448 84.64 94.1464 84.6002V76.4481C94.1448 76.4082 94.1574 76.3692 94.182 76.3375C94.2177 76.2979 94.2634 76.2684 94.3145 76.2522C94.3974 76.2267 94.4827 76.2098 94.5692 76.2019C94.7015 76.1928 94.8343 76.1928 94.9665 76.2019C95.0988 76.1931 95.2316 76.1931 95.3639 76.2019C95.4486 76.2103 95.5322 76.2271 95.6135 76.2522C95.6646 76.2684 95.7103 76.2979 95.746 76.3375C95.772 76.3687 95.7864 76.4077 95.7867 76.4481V79.507C96.0369 79.2619 96.3281 79.0614 96.6476 78.9143C96.9353 78.7843 97.2482 78.7175 97.5646 78.7184C97.914 78.7051 98.262 78.7686 98.5834 78.9042C98.8414 79.0153 99.0672 79.1879 99.2406 79.4065C99.4113 79.6312 99.5343 79.8874 99.6023 80.16C99.6798 80.5028 99.7157 80.8535 99.7093 81.2047L99.6889 84.6002Z" fill="white"/>
<path d="M107.172 81.7774C107.177 82.2151 107.111 82.6507 106.979 83.0683C106.856 83.4418 106.653 83.7845 106.383 84.0729C106.098 84.3646 105.75 84.588 105.364 84.7259C104.915 84.8846 104.44 84.9612 103.963 84.9519C103.505 84.9616 103.048 84.8937 102.613 84.751C102.253 84.6288 101.929 84.4239 101.665 84.1533C101.405 83.8812 101.213 83.5526 101.105 83.1939C100.977 82.772 100.915 82.3333 100.922 81.893C100.917 81.4533 100.984 81.0157 101.12 80.5971C101.244 80.2242 101.447 79.8816 101.716 79.5925C101.995 79.3071 102.334 79.0858 102.71 78.9445C103.157 78.7853 103.63 78.7087 104.106 78.7185C104.566 78.7084 105.024 78.7764 105.461 78.9194C105.82 79.0398 106.145 79.243 106.408 79.5121C106.665 79.7859 106.855 80.1141 106.963 80.4715C107.1 80.8937 107.171 81.3342 107.172 81.7774ZM105.486 81.8427C105.489 81.5901 105.467 81.3377 105.42 81.0893C105.379 80.8777 105.3 80.6751 105.185 80.4916C105.079 80.324 104.93 80.1871 104.752 80.0948C104.542 79.9916 104.31 79.9416 104.075 79.9491C103.854 79.9451 103.635 79.9897 103.433 80.0797C103.253 80.163 103.099 80.2912 102.985 80.4514C102.86 80.6295 102.771 80.8288 102.72 81.0391C102.66 81.296 102.631 81.559 102.633 81.8226C102.632 82.0755 102.656 82.3278 102.705 82.5761C102.747 82.7873 102.826 82.9897 102.939 83.1738C103.042 83.3437 103.193 83.4813 103.372 83.5706C103.582 83.6672 103.813 83.7137 104.044 83.7062C104.267 83.7123 104.488 83.6694 104.691 83.5806C104.871 83.4989 105.025 83.3725 105.14 83.214C105.264 83.0366 105.352 82.837 105.399 82.6263C105.459 82.3694 105.488 82.1064 105.486 81.8427Z" fill="white"/>
<path d="M114.34 81.7773C114.344 82.2149 114.279 82.6505 114.146 83.0682C114.024 83.4416 113.82 83.7843 113.55 84.0727C113.267 84.3656 112.918 84.5892 112.531 84.7257C112.082 84.8849 111.608 84.9615 111.13 84.9517C110.674 84.9615 110.219 84.8935 109.786 84.7508C109.425 84.6288 109.098 84.4239 108.833 84.1531C108.574 83.8797 108.383 83.5515 108.273 83.1937C108.144 82.7719 108.083 82.3331 108.089 81.8928C108.084 81.4531 108.151 81.0155 108.288 80.5969C108.412 80.224 108.615 79.8815 108.884 79.5923C109.17 79.3038 109.518 79.0823 109.903 78.9444C110.35 78.7856 110.823 78.709 111.299 78.7183C111.759 78.7078 112.217 78.7758 112.654 78.9193C113.013 79.0397 113.338 79.2429 113.601 79.512C113.86 79.7844 114.05 80.113 114.156 80.4713C114.285 80.8949 114.347 81.3353 114.34 81.7773ZM112.654 81.8426C112.656 81.5899 112.634 81.3376 112.587 81.0891C112.549 80.8768 112.47 80.6738 112.353 80.4914C112.248 80.3227 112.098 80.1855 111.92 80.0946C111.71 79.9914 111.477 79.9414 111.243 79.9489C111.021 79.9449 110.802 79.9895 110.601 80.0795C110.421 80.1629 110.266 80.291 110.152 80.4512C110.028 80.6286 109.94 80.8282 109.893 81.0389C109.828 81.2952 109.798 81.5585 109.801 81.8225C109.8 82.0753 109.824 82.3276 109.872 82.5759C109.914 82.7872 109.993 82.9895 110.107 83.1736C110.211 83.3424 110.361 83.4796 110.54 83.5704C110.749 83.6565 110.973 83.7008 111.199 83.7008C111.426 83.7008 111.65 83.6565 111.859 83.5704C112.038 83.4887 112.193 83.3623 112.307 83.2038C112.432 83.0257 112.521 82.8264 112.572 82.6161C112.629 82.3622 112.657 82.1026 112.654 81.8426Z" fill="white"/>
<path d="M117.279 84.6003C117.279 84.6407 117.265 84.6797 117.238 84.7108C117.202 84.747 117.156 84.773 117.106 84.7862C117.023 84.8097 116.938 84.8248 116.851 84.8314C116.721 84.8379 116.59 84.8379 116.459 84.8314C116.296 84.8314 116.164 84.8314 116.057 84.8314C115.972 84.8244 115.888 84.8093 115.807 84.7862C115.757 84.773 115.711 84.747 115.675 84.7108C115.648 84.6797 115.634 84.6407 115.634 84.6003V76.4482C115.634 76.4079 115.648 76.3688 115.675 76.3377C115.71 76.2981 115.756 76.2686 115.807 76.2523C115.888 76.2273 115.972 76.2104 116.057 76.2021C116.191 76.1931 116.325 76.1931 116.459 76.2021C116.59 76.1931 116.721 76.1931 116.851 76.2021C116.938 76.21 117.023 76.2268 117.106 76.2523C117.157 76.2686 117.203 76.2981 117.238 76.3377C117.265 76.3688 117.279 76.4079 117.279 76.4482V84.6003Z" fill="white"/>
<path d="M123 83.0381C123.007 83.3249 122.944 83.609 122.817 83.8669C122.697 84.1041 122.522 84.3104 122.307 84.4697C122.064 84.6376 121.791 84.7602 121.502 84.8313C121.17 84.9157 120.827 84.9562 120.483 84.9519C120.275 84.9527 120.068 84.9376 119.862 84.9066C119.681 84.8796 119.503 84.841 119.327 84.7911C119.195 84.751 119.066 84.7024 118.94 84.6455C118.856 84.6108 118.779 84.5634 118.711 84.5048C118.655 84.4473 118.617 84.3762 118.599 84.2989C118.57 84.1635 118.558 84.0252 118.563 83.887C118.557 83.7917 118.557 83.696 118.563 83.6007C118.568 83.5405 118.582 83.4814 118.604 83.4249C118.614 83.3891 118.638 83.3586 118.67 83.3395C118.702 83.331 118.735 83.331 118.767 83.3395C118.841 83.3491 118.912 83.3749 118.976 83.4149C119.072 83.4651 119.184 83.5254 119.327 83.5856C119.485 83.6538 119.646 83.7125 119.811 83.7614C120.015 83.8161 120.226 83.8431 120.438 83.8418C120.571 83.8434 120.705 83.8282 120.835 83.7966C120.94 83.7711 121.04 83.7287 121.13 83.671C121.213 83.6233 121.28 83.5536 121.324 83.4701C121.37 83.3815 121.392 83.2832 121.39 83.1838C121.392 83.0652 121.349 82.9503 121.268 82.8623C121.177 82.7674 121.07 82.6892 120.952 82.6313C120.806 82.5589 120.654 82.4968 120.499 82.4454L119.989 82.2546C119.814 82.1836 119.644 82.1014 119.48 82.0084C119.316 81.9186 119.165 81.807 119.032 81.6769C118.895 81.5404 118.788 81.3781 118.716 81.1998C118.628 80.9751 118.587 80.7356 118.594 80.4951C118.601 80.2545 118.656 80.0178 118.756 79.7984C118.867 79.5763 119.027 79.3821 119.225 79.2308C119.448 79.066 119.7 78.9434 119.969 78.8691C120.29 78.7768 120.623 78.7327 120.957 78.7385C121.128 78.7384 121.298 78.7501 121.467 78.7737C121.623 78.7947 121.778 78.8266 121.93 78.8691C122.051 78.8968 122.169 78.9372 122.282 78.9897C122.355 79.0184 122.426 79.0555 122.491 79.1002C122.526 79.1236 122.555 79.1545 122.577 79.1906C122.595 79.2277 122.608 79.2664 122.618 79.3061C122.618 79.3463 122.618 79.4016 122.618 79.4669C122.618 79.5322 122.618 79.6075 122.618 79.7029C122.618 79.7984 122.618 79.9089 122.618 79.9792C122.616 80.0356 122.605 80.0914 122.587 80.145C122.577 80.1793 122.556 80.2094 122.526 80.2303C122.496 80.2378 122.465 80.2378 122.435 80.2303C122.369 80.2231 122.306 80.2008 122.251 80.1651C122.15 80.1126 122.046 80.0657 121.94 80.0244C121.801 79.9693 121.658 79.9223 121.512 79.8838C121.331 79.8395 121.144 79.8176 120.957 79.8185C120.827 79.8162 120.696 79.8314 120.57 79.8637C120.474 79.8869 120.384 79.9297 120.305 79.9892C120.238 80.0376 120.184 80.1014 120.147 80.1751C120.112 80.249 120.095 80.3297 120.096 80.4112C120.093 80.5299 120.137 80.6452 120.219 80.7326C120.314 80.8261 120.424 80.9041 120.545 80.9637C120.693 81.0348 120.847 81.0969 121.003 81.1495C121.176 81.2048 121.349 81.2701 121.512 81.3354C121.686 81.407 121.856 81.4874 122.022 81.5765C122.189 81.6662 122.343 81.7777 122.48 81.908C122.618 82.0551 122.729 82.2251 122.806 82.4103C122.913 82.6044 122.979 82.8181 123 83.0381Z" fill="white"/>
<path d="M29.5566 58.863V66.2969H49.6075" stroke="url(#paint22_linear_42_57)" stroke-width="0.5" stroke-miterlimit="10"/>
<path d="M91.9609 13.0795V0.125488H71.91" stroke="url(#paint23_linear_42_57)" stroke-width="0.5" stroke-miterlimit="10"/>
</g>
<defs>
<linearGradient id="paint0_linear_42_57" x1="61.1052" y1="37.9276" x2="90.0047" y2="37.9276" gradientUnits="userSpaceOnUse">
<stop stop-color="#343D84"/>
<stop offset="0.19" stop-color="#343D84"/>
<stop offset="0.68" stop-color="#157AA3"/>
<stop offset="1" stop-color="#039EB5"/>
</linearGradient>
<linearGradient id="paint1_linear_42_57" x1="-nan" y1="-nan" x2="-nan" y2="-nan" gradientUnits="userSpaceOnUse">
<stop offset="0.05" stop-color="#00BBDB"/>
<stop offset="0.4" stop-color="#85D2DF"/>
<stop offset="0.51" stop-color="#CAE9FA"/>
<stop offset="0.59" stop-color="#9BDAEB"/>
<stop offset="0.66" stop-color="#74CDDE"/>
<stop offset="0.73" stop-color="#57C8DD"/>
<stop offset="0.85" stop-color="#28C1DC"/>
<stop offset="0.95" stop-color="#0BBDDB"/>
<stop offset="1" stop-color="#00BBDB"/>
</linearGradient>
<linearGradient id="paint2_linear_42_57" x1="66.1434" y1="37.9527" x2="84.9054" y2="37.9527" gradientUnits="userSpaceOnUse">
<stop offset="0.05" stop-color="#00BBDB"/>
<stop offset="0.4" stop-color="#85D2DF"/>
<stop offset="0.51" stop-color="#CAE9FA"/>
<stop offset="0.59" stop-color="#9BDAEB"/>
<stop offset="0.66" stop-color="#74CDDE"/>
<stop offset="0.73" stop-color="#57C8DD"/>
<stop offset="0.85" stop-color="#28C1DC"/>
<stop offset="0.95" stop-color="#0BBDDB"/>
<stop offset="1" stop-color="#00BBDB"/>
</linearGradient>
<linearGradient id="paint3_linear_42_57" x1="65.9147" y1="31.8305" x2="84.9075" y2="31.8305" gradientUnits="userSpaceOnUse">
<stop offset="0.05" stop-color="#00BBDB"/>
<stop offset="0.4" stop-color="#85D2DF"/>
<stop offset="0.51" stop-color="#CAE9FA"/>
<stop offset="0.59" stop-color="#9BDAEB"/>
<stop offset="0.66" stop-color="#74CDDE"/>
<stop offset="0.73" stop-color="#57C8DD"/>
<stop offset="0.85" stop-color="#28C1DC"/>
<stop offset="0.95" stop-color="#0BBDDB"/>
<stop offset="1" stop-color="#00BBDB"/>
</linearGradient>
<linearGradient id="paint4_linear_42_57" x1="65.9894" y1="43.6747" x2="87.0616" y2="43.6747" gradientUnits="userSpaceOnUse">
<stop offset="0.05" stop-color="#00BBDB"/>
<stop offset="0.4" stop-color="#85D2DF"/>
<stop offset="0.51" stop-color="#CAE9FA"/>
<stop offset="0.59" stop-color="#9BDAEB"/>
<stop offset="0.66" stop-color="#74CDDE"/>
<stop offset="0.73" stop-color="#57C8DD"/>
<stop offset="0.85" stop-color="#28C1DC"/>
<stop offset="0.95" stop-color="#0BBDDB"/>
<stop offset="1" stop-color="#00BBDB"/>
</linearGradient>
<linearGradient id="paint5_linear_42_57" x1="66.3421" y1="52.7501" x2="86.989" y2="52.7501" gradientUnits="userSpaceOnUse">
<stop offset="0.05" stop-color="#00BBDB"/>
<stop offset="0.4" stop-color="#85D2DF"/>
<stop offset="0.51" stop-color="#CAE9FA"/>
<stop offset="0.59" stop-color="#9BDAEB"/>
<stop offset="0.66" stop-color="#74CDDE"/>
<stop offset="0.73" stop-color="#57C8DD"/>
<stop offset="0.85" stop-color="#28C1DC"/>
<stop offset="0.95" stop-color="#0BBDDB"/>
<stop offset="1" stop-color="#00BBDB"/>
</linearGradient>
<linearGradient id="paint6_linear_42_57" x1="66.3421" y1="53.1821" x2="86.9902" y2="53.1821" gradientUnits="userSpaceOnUse">
<stop offset="0.05" stop-color="#00BBDB"/>
<stop offset="0.4" stop-color="#85D2DF"/>
<stop offset="0.51" stop-color="#CAE9FA"/>
<stop offset="0.59" stop-color="#9BDAEB"/>
<stop offset="0.66" stop-color="#74CDDE"/>
<stop offset="0.73" stop-color="#57C8DD"/>
<stop offset="0.85" stop-color="#28C1DC"/>
<stop offset="0.95" stop-color="#0BBDDB"/>
<stop offset="1" stop-color="#00BBDB"/>
</linearGradient>
<linearGradient id="paint7_linear_42_57" x1="84.2279" y1="32.1765" x2="85.4709" y2="32.1765" gradientUnits="userSpaceOnUse">
<stop offset="0.05" stop-color="#00BBDB"/>
<stop offset="0.4" stop-color="#85D2DF"/>
<stop offset="0.51" stop-color="#CAE9FA"/>
<stop offset="0.59" stop-color="#9BDAEB"/>
<stop offset="0.66" stop-color="#74CDDE"/>
<stop offset="0.73" stop-color="#57C8DD"/>
<stop offset="0.85" stop-color="#28C1DC"/>
<stop offset="0.95" stop-color="#0BBDDB"/>
<stop offset="1" stop-color="#00BBDB"/>
</linearGradient>
<linearGradient id="paint8_linear_42_57" x1="65.6748" y1="52.9311" x2="66.8006" y2="52.9311" gradientUnits="userSpaceOnUse">
<stop offset="0.05" stop-color="#00BBDB"/>
<stop offset="0.4" stop-color="#85D2DF"/>
<stop offset="0.51" stop-color="#CAE9FA"/>
<stop offset="0.59" stop-color="#9BDAEB"/>
<stop offset="0.66" stop-color="#74CDDE"/>
<stop offset="0.73" stop-color="#57C8DD"/>
<stop offset="0.85" stop-color="#28C1DC"/>
<stop offset="0.95" stop-color="#0BBDDB"/>
<stop offset="1" stop-color="#00BBDB"/>
</linearGradient>
<linearGradient id="paint9_linear_42_57" x1="28.8435" y1="53.0716" x2="30.2699" y2="53.0716" gradientUnits="userSpaceOnUse">
<stop offset="0.05" stop-color="#00BBDB"/>
<stop offset="0.4" stop-color="#85D2DF"/>
<stop offset="0.51" stop-color="#CAE9FA"/>
<stop offset="0.59" stop-color="#9BDAEB"/>
<stop offset="0.66" stop-color="#74CDDE"/>
<stop offset="0.73" stop-color="#57C8DD"/>
<stop offset="0.85" stop-color="#28C1DC"/>
<stop offset="0.95" stop-color="#0BBDDB"/>
<stop offset="1" stop-color="#00BBDB"/>
</linearGradient>
<linearGradient id="paint10_linear_42_57" x1="62.8219" y1="19.7648" x2="64.1719" y2="19.7648" gradientUnits="userSpaceOnUse">
<stop offset="0.05" stop-color="#00BBDB"/>
<stop offset="0.4" stop-color="#85D2DF"/>
<stop offset="0.51" stop-color="#CAE9FA"/>
<stop offset="0.59" stop-color="#9BDAEB"/>
<stop offset="0.66" stop-color="#74CDDE"/>
<stop offset="0.73" stop-color="#57C8DD"/>
<stop offset="0.85" stop-color="#28C1DC"/>
<stop offset="0.95" stop-color="#0BBDDB"/>
<stop offset="1" stop-color="#00BBDB"/>
</linearGradient>
<linearGradient id="paint11_linear_42_57" x1="-nan" y1="-nan" x2="-nan" y2="-nan" gradientUnits="userSpaceOnUse">
<stop offset="0.05" stop-color="#00BBDB"/>
<stop offset="0.4" stop-color="#85D2DF"/>
<stop offset="0.51" stop-color="#CAE9FA"/>
<stop offset="0.59" stop-color="#9BDAEB"/>
<stop offset="0.66" stop-color="#74CDDE"/>
<stop offset="0.73" stop-color="#57C8DD"/>
<stop offset="0.85" stop-color="#28C1DC"/>
<stop offset="0.95" stop-color="#0BBDDB"/>
<stop offset="1" stop-color="#00BBDB"/>
</linearGradient>
<linearGradient id="paint12_linear_42_57" x1="46.7141" y1="36.9382" x2="64.2433" y2="36.9382" gradientUnits="userSpaceOnUse">
<stop offset="0.05" stop-color="#00BBDB"/>
<stop offset="0.4" stop-color="#85D2DF"/>
<stop offset="0.51" stop-color="#CAE9FA"/>
<stop offset="0.59" stop-color="#9BDAEB"/>
<stop offset="0.66" stop-color="#74CDDE"/>
<stop offset="0.73" stop-color="#57C8DD"/>
<stop offset="0.85" stop-color="#28C1DC"/>
<stop offset="0.95" stop-color="#0BBDDB"/>
<stop offset="1" stop-color="#00BBDB"/>
</linearGradient>
<linearGradient id="paint13_linear_42_57" x1="-nan" y1="-nan" x2="-nan" y2="-nan" gradientUnits="userSpaceOnUse">
<stop offset="0.05" stop-color="#00BBDB"/>
<stop offset="0.4" stop-color="#85D2DF"/>
<stop offset="0.51" stop-color="#CAE9FA"/>
<stop offset="0.59" stop-color="#9BDAEB"/>
<stop offset="0.66" stop-color="#74CDDE"/>
<stop offset="0.73" stop-color="#57C8DD"/>
<stop offset="0.85" stop-color="#28C1DC"/>
<stop offset="0.95" stop-color="#0BBDDB"/>
<stop offset="1" stop-color="#00BBDB"/>
</linearGradient>
<linearGradient id="paint14_linear_42_57" x1="32.1037" y1="22.854" x2="56.1332" y2="22.854" gradientUnits="userSpaceOnUse">
<stop stop-color="#942261"/>
<stop offset="0.15" stop-color="#832466"/>
<stop offset="0.37" stop-color="#72266B"/>
<stop offset="0.52" stop-color="#6C276D"/>
<stop offset="1" stop-color="#50296F"/>
</linearGradient>
<linearGradient id="paint15_linear_42_57" x1="29.4301" y1="19.0365" x2="50.7384" y2="19.0365" gradientUnits="userSpaceOnUse">
<stop offset="0.05" stop-color="#00BBDB"/>
<stop offset="0.4" stop-color="#85D2DF"/>
<stop offset="0.51" stop-color="#CAE9FA"/>
<stop offset="0.59" stop-color="#9BDAEB"/>
<stop offset="0.66" stop-color="#74CDDE"/>
<stop offset="0.73" stop-color="#57C8DD"/>
<stop offset="0.85" stop-color="#28C1DC"/>
<stop offset="0.95" stop-color="#0BBDDB"/>
<stop offset="1" stop-color="#00BBDB"/>
</linearGradient>
<linearGradient id="paint16_linear_42_57" x1="29.4293" y1="11.9995" x2="50.7385" y2="11.9995" gradientUnits="userSpaceOnUse">
<stop offset="0.05" stop-color="#00BBDB"/>
<stop offset="0.4" stop-color="#85D2DF"/>
<stop offset="0.51" stop-color="#CAE9FA"/>
<stop offset="0.59" stop-color="#9BDAEB"/>
<stop offset="0.66" stop-color="#74CDDE"/>
<stop offset="0.73" stop-color="#57C8DD"/>
<stop offset="0.85" stop-color="#28C1DC"/>
<stop offset="0.95" stop-color="#0BBDDB"/>
<stop offset="1" stop-color="#00BBDB"/>
</linearGradient>
<linearGradient id="paint17_linear_42_57" x1="29.4293" y1="5.6958" x2="50.7384" y2="5.6958" gradientUnits="userSpaceOnUse">
<stop offset="0.05" stop-color="#00BBDB"/>
<stop offset="0.4" stop-color="#85D2DF"/>
<stop offset="0.51" stop-color="#CAE9FA"/>
<stop offset="0.59" stop-color="#9BDAEB"/>
<stop offset="0.66" stop-color="#74CDDE"/>
<stop offset="0.73" stop-color="#57C8DD"/>
<stop offset="0.85" stop-color="#28C1DC"/>
<stop offset="0.95" stop-color="#0BBDDB"/>
<stop offset="1" stop-color="#00BBDB"/>
</linearGradient>
<linearGradient id="paint18_linear_42_57" x1="-nan" y1="-nan" x2="-nan" y2="-nan" gradientUnits="userSpaceOnUse">
<stop offset="0.05" stop-color="#00BBDB"/>
<stop offset="0.4" stop-color="#85D2DF"/>
<stop offset="0.51" stop-color="#CAE9FA"/>
<stop offset="0.59" stop-color="#9BDAEB"/>
<stop offset="0.66" stop-color="#74CDDE"/>
<stop offset="0.73" stop-color="#57C8DD"/>
<stop offset="0.85" stop-color="#28C1DC"/>
<stop offset="0.95" stop-color="#0BBDDB"/>
<stop offset="1" stop-color="#00BBDB"/>
</linearGradient>
<linearGradient id="paint19_linear_42_57" x1="-nan" y1="-nan" x2="-nan" y2="-nan" gradientUnits="userSpaceOnUse">
<stop offset="0.05" stop-color="#00BBDB"/>
<stop offset="0.4" stop-color="#85D2DF"/>
<stop offset="0.51" stop-color="#CAE9FA"/>
<stop offset="0.59" stop-color="#9BDAEB"/>
<stop offset="0.66" stop-color="#74CDDE"/>
<stop offset="0.73" stop-color="#57C8DD"/>
<stop offset="0.85" stop-color="#28C1DC"/>
<stop offset="0.95" stop-color="#0BBDDB"/>
<stop offset="1" stop-color="#00BBDB"/>
</linearGradient>
<linearGradient id="paint20_linear_42_57" x1="41.6707" y1="36.7773" x2="64.1719" y2="36.7773" gradientUnits="userSpaceOnUse">
<stop stop-color="#6C276D"/>
<stop offset="0.07" stop-color="#662A70"/>
<stop offset="0.44" stop-color="#4A347B"/>
<stop offset="0.76" stop-color="#3A3B82"/>
<stop offset="1" stop-color="#343D84"/>
</linearGradient>
<linearGradient id="paint21_linear_42_57" x1="84.2381" y1="64.8001" x2="70.1542" y2="40.0512" gradientUnits="userSpaceOnUse">
<stop stop-color="#039EB5"/>
<stop offset="0.15" stop-color="#137EA5"/>
<stop offset="0.31" stop-color="#216297"/>
<stop offset="0.48" stop-color="#2C4D8C"/>
<stop offset="0.64" stop-color="#324186"/>
<stop offset="0.81" stop-color="#343D84"/>
<stop offset="1" stop-color="#343D84"/>
</linearGradient>
<linearGradient id="paint22_linear_42_57" x1="29.4293" y1="62.6453" x2="49.6075" y2="62.6453" gradientUnits="userSpaceOnUse">
<stop offset="0.05" stop-color="#00BBDB"/>
<stop offset="0.4" stop-color="#85D2DF"/>
<stop offset="0.51" stop-color="#CAE9FA"/>
<stop offset="0.59" stop-color="#9BDAEB"/>
<stop offset="0.66" stop-color="#74CDDE"/>
<stop offset="0.73" stop-color="#57C8DD"/>
<stop offset="0.85" stop-color="#28C1DC"/>
<stop offset="0.95" stop-color="#0BBDDB"/>
<stop offset="1" stop-color="#00BBDB"/>
</linearGradient>
<linearGradient id="paint23_linear_42_57" x1="92.0933" y1="6.5397" x2="71.91" y2="6.5397" gradientUnits="userSpaceOnUse">
<stop offset="0.05" stop-color="#00BBDB"/>
<stop offset="0.4" stop-color="#85D2DF"/>
<stop offset="0.51" stop-color="#CAE9FA"/>
<stop offset="0.59" stop-color="#9BDAEB"/>
<stop offset="0.66" stop-color="#74CDDE"/>
<stop offset="0.73" stop-color="#57C8DD"/>
<stop offset="0.85" stop-color="#28C1DC"/>
<stop offset="0.95" stop-color="#0BBDDB"/>
<stop offset="1" stop-color="#00BBDB"/>
</linearGradient>
<clipPath id="clip0_42_57">
<rect width="123" height="101" fill="white"/>
</clipPath>
</defs>
</svg>
