<svg width="70" height="70" viewBox="0 0 70 70" fill="none" xmlns="http://www.w3.org/2000/svg">
<circle cx="35" cy="35" r="35" fill="#1C95A6" fill-opacity="0.15"/>
<path d="M38.58 35C38.58 36.98 36.98 38.58 35 38.58C33.02 38.58 31.42 36.98 31.42 35C31.42 33.02 33.02 31.42 35 31.42C36.98 31.42 38.58 33.02 38.58 35Z" stroke="#1C95A6" stroke-width="1.5" stroke-linecap="round" stroke-linejoin="round"/>
<path d="M35 43.27C38.53 43.27 41.82 41.19 44.11 37.59C45.01 36.18 45.01 33.81 44.11 32.4C41.82 28.8 38.53 26.72 35 26.72C31.47 26.72 28.18 28.8 25.89 32.4C24.99 33.81 24.99 36.18 25.89 37.59C28.18 41.19 31.47 43.27 35 43.27Z" stroke="#1C95A6" stroke-width="1.5" stroke-linecap="round" stroke-linejoin="round"/>
</svg>
