<svg width="20" height="20" viewBox="0 0 20 20" fill="none" xmlns="http://www.w3.org/2000/svg">
<path d="M20 3.79876C19.2562 4.125 18.4638 4.34124 17.6374 4.44624C18.4874 3.93874 19.1362 3.14124 19.4412 2.18C18.6488 2.6525 17.7738 2.98626 16.8412 3.1725C16.0888 2.37126 15.0162 1.875 13.8462 1.875C11.5762 1.875 9.74874 3.7175 9.74874 5.97626C9.74874 6.30126 9.77625 6.61374 9.84376 6.91124C6.435 6.745 3.41876 5.11126 1.3925 2.6225C1.03875 3.23626 0.83125 3.93876 0.83125 4.695C0.83125 6.115 1.5625 7.37374 2.6525 8.1025C1.99374 8.09 1.3475 7.89876 0.8 7.5975C0.8 7.61 0.8 7.62625 0.8 7.6425C0.8 9.635 2.22124 11.29 4.085 11.6712C3.75124 11.7624 3.3875 11.8062 3.01 11.8062C2.7475 11.8062 2.4825 11.7912 2.23374 11.7362C2.765 13.36 4.2725 14.5538 6.065 14.5924C4.67 15.6838 2.89876 16.3412 0.98125 16.3412C0.645 16.3412 0.3225 16.3262 0 16.285C1.81624 17.4562 3.96876 18.125 6.29 18.125C13.835 18.125 17.96 11.875 17.96 6.4575C17.96 6.27624 17.9538 6.10126 17.945 5.9275C18.7588 5.35 19.4424 4.62876 20 3.79876Z" fill="#001C3D"/>
</svg>
