<svg width="70" height="70" viewBox="0 0 70 70" fill="none" xmlns="http://www.w3.org/2000/svg">
<circle cx="35" cy="35" r="35" fill="#1C95A6" fill-opacity="0.15"/>
<g clip-path="url(#clip0_62_585)">
<path d="M46.9716 24.7918C46.9197 23.8384 46.1615 23.0803 45.2081 23.0283C43.2845 22.9232 39.5202 23.0254 35.9208 24.8872C34.0858 25.8363 32.1452 27.4455 30.5965 29.3021C30.5774 29.325 30.5589 29.348 30.5399 29.3709L27.0253 29.6424C26.4467 29.6871 25.9314 29.9904 25.6115 30.4743L23.2136 34.1011C22.9709 34.4681 22.9324 34.9275 23.1103 35.3298C23.2884 35.7322 23.6542 36.0126 24.089 36.0799L27.0501 36.5386C27.0396 36.5961 27.0291 36.6536 27.0195 36.7112C26.921 37.3009 27.1163 37.9072 27.5422 38.333L31.6669 42.4577C32.02 42.8108 32.4971 43.0055 32.986 43.0055C33.0867 43.0055 33.188 42.9972 33.2887 42.9804C33.3463 42.9707 33.4038 42.9602 33.4614 42.9498L33.92 45.911C33.9874 46.3457 34.2678 46.7116 34.67 46.8896C34.8374 46.9636 35.0146 47.0002 35.1909 47.0002C35.4386 47.0002 35.6845 46.9281 35.8988 46.7864L39.5256 44.3885C40.0096 44.0685 40.3128 43.5532 40.3574 42.9747L40.6289 39.46C40.6518 39.4411 40.6749 39.4225 40.6978 39.4035C42.5544 37.8548 44.1636 35.9141 45.1127 34.0792C46.9745 30.4796 47.0766 26.7153 46.9716 24.7918ZM38.75 43.2154L35.2808 45.5091L34.8338 42.6233C36.3 42.1921 37.7505 41.5017 39.1323 40.5767L38.9555 42.8663C38.9444 43.0091 38.8695 43.1364 38.75 43.2154ZM32.6612 41.4633L28.5365 37.3387C28.4313 37.2334 28.3827 37.0855 28.4065 36.943C28.5291 36.2098 28.7197 35.5118 28.9556 34.8542L35.1444 41.043C34.3546 41.3259 33.6472 41.4946 33.0568 41.5934C32.9142 41.6171 32.7665 41.5686 32.6612 41.4633ZM27.1336 31.0445L29.4231 30.8676C28.4981 32.2494 27.8076 33.6999 27.3765 35.1661L24.4907 34.7192L26.7845 31.2499C26.8635 31.1304 26.9908 31.0555 27.1336 31.0445ZM39.7971 38.3235C38.6612 39.271 37.5585 39.9563 36.5422 40.4522L29.5475 33.4575C30.197 32.1307 30.9898 31.0259 31.6764 30.2029C33.1096 28.4847 34.8921 27.0024 36.5669 26.1362C39.8704 24.4275 43.3509 24.3354 45.1316 24.4324C45.3673 24.4452 45.5547 24.6327 45.5675 24.8684C45.6646 26.6491 45.5724 30.1296 43.8637 33.4331C42.9975 35.1078 41.5153 36.8903 39.7971 38.3235Z" fill="#1C95A6"/>
<path d="M39.4401 34.0739C40.3402 34.0738 41.2407 33.7311 41.9259 33.0459C42.5899 32.3819 42.9556 31.499 42.9556 30.56C42.9556 29.621 42.5899 28.7382 41.9259 28.0742C40.5552 26.7034 38.3249 26.7035 36.9543 28.0742C36.2902 28.7382 35.9246 29.621 35.9246 30.56C35.9246 31.499 36.2903 32.3819 36.9543 33.0459C37.6397 33.7313 38.5397 34.074 39.4401 34.0739ZM37.9485 29.0685C38.3597 28.6573 38.8999 28.4517 39.44 28.4517C39.9802 28.4517 40.5203 28.6573 40.9315 29.0685C41.3299 29.4669 41.5493 29.9966 41.5493 30.56C41.5493 31.1234 41.3299 31.6531 40.9315 32.0515C40.1091 32.8739 38.7709 32.8739 37.9485 32.0515C37.5501 31.6531 37.3307 31.1234 37.3307 30.56C37.3307 29.9967 37.5501 29.4669 37.9485 29.0685Z" fill="#1C95A6"/>
<path d="M23.7173 42.7784C23.8972 42.7784 24.0772 42.7097 24.2144 42.5724L26.51 40.2768C26.7846 40.0022 26.7846 39.557 26.51 39.2824C26.2355 39.0078 25.7903 39.0078 25.5157 39.2824L23.2201 41.578C22.9455 41.8526 22.9455 42.2978 23.2201 42.5724C23.3574 42.7097 23.5373 42.7784 23.7173 42.7784Z" fill="#1C95A6"/>
<path d="M28.6138 41.3862C28.3392 41.1116 27.894 41.1116 27.6194 41.3862L23.2059 45.7997C22.9314 46.0743 22.9314 46.5195 23.2059 46.7941C23.3432 46.9314 23.5231 47 23.7031 47C23.8831 47 24.063 46.9314 24.2003 46.794L28.6137 42.3805C28.8884 42.1059 28.8884 41.6608 28.6138 41.3862Z" fill="#1C95A6"/>
<path d="M29.7234 43.49L27.4277 45.7856C27.1532 46.0602 27.1532 46.5054 27.4277 46.78C27.565 46.9173 27.745 46.9859 27.9249 46.9859C28.1048 46.9859 28.2848 46.9173 28.4221 46.78L30.7177 44.4844C30.9923 44.2098 30.9923 43.7646 30.7177 43.49C30.4431 43.2154 29.9979 43.2154 29.7234 43.49Z" fill="#1C95A6"/>
</g>
<defs>
<clipPath id="clip0_62_585">
<rect width="24" height="24" fill="white" transform="translate(23 23)"/>
</clipPath>
</defs>
</svg>
